<svg width="82" height="79" viewBox="0 0 82 79" fill="none" xmlns="http://www.w3.org/2000/svg">
<path d="M14.0283 40.1768L11.9819 40.7319C8.15177 41.7708 4.61692 43.6889 1.65802 46.3336C0.780986 47.1175 0.780986 48.49 1.65802 49.2741C4.61692 51.9188 8.15177 53.8369 11.9819 54.876L14.0282 55.4311L14.0283 40.1768Z" fill="#464D59" stroke="#222222" stroke-width="2"/>
<path d="M34.9405 35.6391H45.7458C53.0911 35.6391 59.0458 29.6845 59.0458 22.3391C59.0458 14.9938 53.0913 9.03906 45.7458 9.03906C38.4005 9.03906 32.4458 14.9936 32.4458 22.3391V33.1444C32.446 34.5222 33.5628 35.6391 34.9405 35.6391Z" fill="#ABDFEB"/>
<path d="M34.9405 35.6391H45.7458C53.0911 35.6391 59.0458 29.6845 59.0458 22.3391C59.0458 14.9938 53.0913 9.03906 45.7458 9.03906C38.4005 9.03906 32.4458 14.9936 32.4458 22.3391V33.1444C32.446 34.5222 33.5628 35.6391 34.9405 35.6391Z" fill="#8BCDD8" stroke="#222222" stroke-width="2"/>
<path d="M18.7484 77.2987C18.134 77.2987 17.5147 77.1076 16.9845 76.7114C15.6793 75.7361 15.4123 73.8873 16.3878 72.5821C18.627 69.5862 18.627 66.6631 18.627 62.2382C18.627 60.609 19.9478 59.2881 21.5772 59.2881C23.2065 59.2881 24.5273 60.6089 24.5273 62.2382C24.5273 67.0256 24.5273 71.5475 21.1137 76.1145C20.5345 76.8897 19.6468 77.2987 18.7484 77.2987Z" fill="#464D59" stroke="#222222" stroke-width="2"/>
<path opacity="0.14" d="M21.5772 59.2886C19.948 59.2886 18.627 60.6094 18.627 62.2387C18.627 64.1611 18.6267 65.7998 18.4431 67.2844C20.2025 68.1512 22.1217 68.7429 24.1456 69.0009C24.5261 66.7853 24.5273 64.5428 24.5273 62.2387C24.5273 60.6094 23.2064 59.2886 21.5772 59.2886Z" fill="black"/>
<path d="M30.2266 77.2987C29.6122 77.2987 28.9925 77.1076 28.4627 76.7114C27.1575 75.7359 26.8905 73.8873 27.8659 72.5821C30.1055 69.5862 30.1055 66.6629 30.1055 62.2382C30.1055 60.609 31.4262 59.2881 33.0556 59.2881C34.685 59.2881 36.0058 60.6089 36.0058 62.2382C36.0058 67.0256 36.0058 71.5475 32.592 76.1145C32.0127 76.8897 31.1252 77.2987 30.2266 77.2987Z" fill="#464D59" stroke="#222222" stroke-width="2"/>
<path d="M41.7053 77.2987C41.091 77.2987 40.4716 77.1076 39.9414 76.7114C38.6364 75.7361 38.3692 73.8873 39.3447 72.5821C41.5839 69.5862 41.5839 66.6631 41.5839 62.2382C41.5839 60.609 42.9047 59.2881 44.5341 59.2881C46.1635 59.2881 47.4842 60.6089 47.4842 62.2382C47.4842 67.0256 47.4842 71.5475 44.0706 76.1145C43.4914 76.8897 42.6038 77.2987 41.7053 77.2987Z" fill="#464D59" stroke="#222222" stroke-width="2"/>
<path opacity="0.14" d="M44.5337 59.2886C42.9044 59.2886 41.5835 60.6094 41.5835 62.2387C41.5835 64.9987 41.5834 67.1744 41.0399 69.1479H47.0765C47.4829 66.8845 47.4838 64.5937 47.4838 62.2387C47.4838 60.6094 46.1629 59.2886 44.5337 59.2886Z" fill="black"/>
<path d="M53.1836 77.2987C52.5692 77.2987 51.9497 77.1076 51.4197 76.7114C50.1145 75.7361 49.8475 73.8873 50.823 72.5821C53.0623 69.5862 53.0623 66.6631 53.0623 62.2382C53.0623 60.609 54.3831 59.2881 56.0125 59.2881C57.6419 59.2881 58.9627 60.6089 58.9627 62.2382C58.9627 67.0256 58.9627 71.5475 55.5491 76.1145C54.9695 76.8897 54.082 77.2987 53.1836 77.2987Z" fill="#464D59" stroke="#222222" stroke-width="2"/>
<path opacity="0.14" d="M56.0123 59.2886C54.383 59.2886 53.0621 60.6094 53.0621 62.2387C53.0621 64.7559 53.0615 66.7869 52.6493 68.6219C54.9376 68.0594 57.0555 67.064 58.9113 65.727C58.9621 64.5772 58.9624 63.4161 58.9624 62.2387C58.9623 60.6094 57.6415 59.2886 56.0123 59.2886Z" fill="black"/>
<path d="M48.2952 65.9843H26.4678C16.4266 65.9843 8.28674 57.8443 8.28674 47.8032C8.28674 37.7619 16.4267 29.6221 26.4678 29.6221H48.2952C58.3363 29.6221 66.4763 37.7621 66.4763 47.8032C66.4763 57.8443 58.3363 65.9843 48.2952 65.9843Z" fill="#F7D88B" stroke="#222222" stroke-width="2"/>
<path opacity="0.14" d="M33.0555 59.2886C31.4263 59.2886 30.1054 60.6094 30.1054 62.2387C30.1054 64.9986 30.1052 67.1744 29.5618 69.1479H35.5983C36.0047 66.8845 36.0057 64.5937 36.0057 62.2387C36.0055 60.6094 34.6847 59.2886 33.0555 59.2886Z" fill="black"/>
<path d="M26.4674 29.6221C26.1146 29.6221 25.7646 29.6332 25.4168 29.653C18.3823 38.2714 18.7615 57.28 28.6321 65.9844H45.329C35.4468 57.2699 35.0779 38.226 42.1383 29.6221H26.4674Z" fill="#464D59" stroke="#222222" stroke-width="2"/>
<path opacity="0.05" d="M48.295 29.6221H33.1426C31.6283 32.2893 30.7791 35.2813 30.7791 38.4421C30.7791 49.6516 41.4561 58.7389 54.627 58.7389C57.913 58.7389 61.0434 58.1732 63.8919 57.15C65.5322 54.4186 66.4762 51.2213 66.4762 47.8033C66.4761 37.7621 58.3361 29.6221 48.295 29.6221Z" fill="black"/>
<path d="M32.1091 35.6391H21.3038C13.9585 35.6391 8.00378 29.6845 8.00378 22.3391C8.00378 14.9938 13.9583 9.03906 21.3038 9.03906C28.6491 9.03906 34.6038 14.9936 34.6038 22.3391V33.1444C34.6036 34.5222 33.4868 35.6391 32.1091 35.6391Z" fill="#ABDFEB" stroke="#222222" stroke-width="2"/>
<path d="M57.1514 55.1704C70.3225 55.1704 80.9999 46.0832 80.9999 34.8735C80.9999 23.6639 70.3225 14.5767 57.1514 14.5767C43.9803 14.5767 33.303 23.6639 33.303 34.8735C33.303 46.0832 43.9803 55.1704 57.1514 55.1704Z" fill="#F7D88B" stroke="#222222" stroke-width="2"/>
<path d="M46.5268 38.2317C49.0781 38.2317 51.1462 36.5847 51.1462 34.5531C51.1462 32.5215 49.0781 30.8745 46.5268 30.8745C43.9756 30.8745 41.9075 32.5215 41.9075 34.5531C41.9075 36.5847 43.9756 38.2317 46.5268 38.2317Z" fill="#F27281"/>
<path d="M71.5659 38.2317C74.1171 38.2317 76.1853 36.5847 76.1853 34.5531C76.1853 32.5215 74.1171 30.8745 71.5659 30.8745C69.0147 30.8745 66.9465 32.5215 66.9465 34.5531C66.9465 36.5847 69.0147 38.2317 71.5659 38.2317Z" fill="#F27281"/>
<path d="M51.4172 31.7228C50.7699 31.7228 50.2454 31.1982 50.2454 30.5509C50.2454 29.9848 49.7847 29.5242 49.2187 29.5242C48.6524 29.5242 48.1918 29.9848 48.1918 30.5509C48.1918 31.1982 47.6672 31.7228 47.0199 31.7228C46.3726 31.7228 45.848 31.1982 45.848 30.5509C45.848 28.6923 47.3602 27.1804 49.2187 27.1804C51.0771 27.1804 52.5891 28.6925 52.5891 30.5509C52.5891 31.1981 52.0646 31.7228 51.4172 31.7228Z" fill="black"/>
<path d="M71.0712 31.7228C70.4238 31.7228 69.8993 31.1982 69.8993 30.5509C69.8993 29.9848 69.4387 29.5242 68.8726 29.5242C68.3063 29.5242 67.8457 29.9848 67.8457 30.5509C67.8457 31.1982 67.3212 31.7228 66.6738 31.7228C66.0265 31.7228 65.502 31.1982 65.502 30.5509C65.502 28.6923 67.0141 27.1804 68.8726 27.1804C70.7312 27.1804 72.243 28.6925 72.243 30.5509C72.243 31.1981 71.7185 31.7228 71.0712 31.7228Z" fill="black"/>
<path d="M59.0457 35.3549C57.8132 35.3549 56.6412 34.8211 55.8301 33.8906C55.4048 33.4027 55.4556 32.6625 55.9434 32.2372C56.4317 31.8116 57.1717 31.8625 57.5968 32.3505C57.9629 32.7705 58.4911 33.0113 59.0457 33.0113C59.6006 33.0113 60.1287 32.7705 60.4946 32.3505C60.9198 31.8627 61.66 31.8117 62.1481 32.2372C62.6359 32.6625 62.6865 33.4027 62.2614 33.8906C61.4503 34.8211 60.2782 35.3549 59.0457 35.3549Z" fill="black"/>
<path d="M48.7464 20.0315C48.1767 20.0315 47.6769 19.6151 47.5892 19.0345C47.1947 16.4215 47.2524 5.352 54.883 2.98044C55.501 2.78809 56.1577 3.13387 56.3499 3.75184C56.5421 4.36981 56.1967 5.02653 55.5786 5.21872C53.1378 5.97731 51.4242 8.10841 50.4858 11.5528C49.7041 14.4218 49.7113 17.3897 49.9069 18.6847C50.0035 19.3247 49.5631 19.9218 48.9231 20.0184C48.8636 20.0272 48.8047 20.0315 48.7464 20.0315Z" fill="black"/>
<path d="M55.2312 7.49787C57.1082 7.49787 58.6298 5.97627 58.6298 4.09928C58.6298 2.22229 57.1082 0.700684 55.2312 0.700684C53.3542 0.700684 51.8326 2.22229 51.8326 4.09928C51.8326 5.97627 53.3542 7.49787 55.2312 7.49787Z" fill="black"/>
<path d="M65.5545 20.0315C64.9848 20.0315 64.485 19.6151 64.3973 19.0345C64.0028 16.4215 64.0605 5.352 71.6911 2.98044C72.3088 2.78809 72.9658 3.13387 73.158 3.75184C73.35 4.36981 73.0048 5.02653 72.3867 5.21872C69.9458 5.97731 68.2323 8.10841 67.2939 11.5528C66.5122 14.4217 66.5194 17.3897 66.715 18.6847C66.8116 19.3247 66.3713 19.9218 65.7313 20.0184C65.6717 20.0272 65.6128 20.0315 65.5545 20.0315Z" fill="black"/>
<path d="M72.0387 7.49787C73.9157 7.49787 75.4373 5.97627 75.4373 4.09928C75.4373 2.22229 73.9157 0.700684 72.0387 0.700684C70.1617 0.700684 68.6401 2.22229 68.6401 4.09928C68.6401 5.97627 70.1617 7.49787 72.0387 7.49787Z" fill="black"/>
</svg>
