<svg width="82" height="79" viewBox="0 0 82 79" fill="none" xmlns="http://www.w3.org/2000/svg">
<path d="M69.8096 42.6079C74.6204 40.529 82.5999 32.8914 80.7182 28.5365C78.8363 24.1817 67.8057 24.7589 62.9949 26.8378C58.1841 28.9167 55.8098 34.1321 57.6916 38.487C59.5734 42.8418 64.9988 44.6868 69.8096 42.6079Z" fill="#83CCEB" stroke="#222222" stroke-width="2"/>
<path d="M18.262 77.0413C13.9762 77.0413 11.3323 72.3624 13.5434 68.6911L22.1862 54.3413H31.1007L23.3735 73.5855C22.5352 75.6732 20.5117 77.0413 18.262 77.0413Z" fill="#83CCEB" stroke="#222222" stroke-width="2"/>
<path d="M30.6561 77.0408C26.506 77.0408 23.6702 72.8464 25.2166 68.9952L31.1008 54.3408H40.0154L36.4032 72.333C35.8535 75.071 33.4486 77.0408 30.6561 77.0408Z" fill="#8CCDE9"/>
<path d="M30.6561 77.0408C26.506 77.0408 23.6702 72.8464 25.2166 68.9952L31.1008 54.3408H40.0154L36.4032 72.333C35.8535 75.071 33.4486 77.0408 30.6561 77.0408Z" fill="#83CCEB" stroke="#222222" stroke-width="2"/>
<path d="M42.8632 77.0408C39.0333 77.0408 36.1615 73.5353 36.9154 69.7803L40.0151 54.3408H48.9297V70.9744C48.9297 74.3249 46.2137 77.0408 42.8632 77.0408Z" fill="#83CCEB" stroke="#222222" stroke-width="2"/>
<path d="M36.7022 7.27252L36.7021 7.2725C35.541 6.44538 34.1189 6.13104 32.6829 6.39418C31.5026 6.61168 30.3708 5.82862 30.1544 4.65001L30.1543 4.64978C29.938 3.47011 30.7189 2.33811 31.8989 2.12176L31.8989 2.12175C34.4879 1.64722 37.0936 2.21797 39.2224 3.73449C41.3293 5.23543 42.7629 7.53373 43.1473 10.0543C43.3282 11.2401 42.5135 12.3474 41.3286 12.5286C41.2173 12.5458 41.1071 12.5538 40.9989 12.5538C39.9432 12.5538 39.0174 11.7851 38.8533 10.7093L36.7022 7.27252ZM36.7022 7.27252C37.8684 8.10321 38.6478 9.36211 38.8533 10.7092L36.7022 7.27252Z" fill="#83CCEB" stroke="#222222" stroke-width="2"/>
<path d="M67.0963 39.3012C67.0963 22.2743 55.4126 8.47119 41.0001 8.47119C26.5876 8.47119 14.9038 22.2743 14.9038 39.3012C14.9038 56.3281 26.5876 61.8259 41.0001 61.8259C55.4126 61.8259 67.0963 56.3281 67.0963 39.3012Z" fill="#AEEAF9" stroke="#222222" stroke-width="2"/>
<path d="M34.1577 36.4794C36.7419 36.4794 38.8368 34.8111 38.8368 32.7531C38.8368 30.6952 36.7419 29.0269 34.1577 29.0269C31.5735 29.0269 29.4786 30.6952 29.4786 32.7531C29.4786 34.8111 31.5735 36.4794 34.1577 36.4794Z" fill="#FFA6BB"/>
<path d="M59.5204 36.4794C62.1045 36.4794 64.1994 34.8111 64.1994 32.7531C64.1994 30.6952 62.1045 29.0269 59.5204 29.0269C56.9362 29.0269 54.8413 30.6952 54.8413 32.7531C54.8413 34.8111 56.9362 36.4794 59.5204 36.4794Z" fill="#FFA6BB"/>
<path d="M46.1742 25.9936L43.1262 29.6736C42.6048 30.3031 42.6801 31.2334 43.2959 31.7709L45.8273 33.9801C46.4073 34.4862 47.2718 34.4862 47.8518 33.9801L50.3832 31.7709C50.999 31.2334 51.0743 30.3031 50.5529 29.6736L47.505 25.9936C47.1595 25.5764 46.5196 25.5764 46.1742 25.9936Z" fill="#FBDD56" stroke="#222222" stroke-width="2"/>
<path opacity="0.1" d="M46.6442 25.7046C46.4675 25.7454 46.3009 25.841 46.1742 25.994L43.1262 29.6738C42.6048 30.3033 42.6801 31.2337 43.2959 31.7712L45.8273 33.9804C46.3156 34.4065 47.0048 34.4724 47.5568 34.181C45.0406 33.0279 46.0215 27.571 46.6442 25.7046Z" fill="black"/>
<path d="M39.1124 29.8698C38.4652 29.8698 37.9405 29.3452 37.9405 28.6979C37.9405 28.1159 37.4671 27.6426 36.8852 27.6426C36.3034 27.6426 35.8301 28.1159 35.8301 28.6979C35.8301 29.3452 35.3054 29.8698 34.6582 29.8698C34.011 29.8698 33.4863 29.3452 33.4863 28.6979C33.4863 26.8237 35.011 25.2988 36.8852 25.2988C38.7595 25.2988 40.2843 26.8237 40.2843 28.6979C40.2843 29.3451 39.7598 29.8698 39.1124 29.8698Z" fill="black"/>
<path d="M59.021 29.8698C58.3736 29.8698 57.8491 29.3452 57.8491 28.6979C57.8491 28.1159 57.3757 27.6426 56.7938 27.6426C56.2119 27.6426 55.7385 28.1159 55.7385 28.6979C55.7385 29.3452 55.2139 29.8698 54.5666 29.8698C53.9192 29.8698 53.3947 29.3452 53.3947 28.6979C53.3947 26.8237 54.9196 25.2988 56.7938 25.2988C58.668 25.2988 60.1928 26.8237 60.1928 28.6979C60.1928 29.3451 59.6683 29.8698 59.021 29.8698Z" fill="black"/>
<path opacity="0.05" d="M39.9687 8.49707C26.0344 9.13723 14.9038 22.6824 14.9038 39.301C14.9038 56.3279 26.5876 61.8257 41.0001 61.8257C45.3235 61.8257 49.4007 61.33 52.9913 60.1779C20.2418 53.4421 31.7265 15.9954 39.9687 8.49707Z" fill="black"/>
<path d="M38.3904 66.1445C36.7035 66.1445 35.3362 64.7771 35.3362 63.0903V59.7134C35.3362 58.0265 36.7035 56.6592 38.3904 56.6592C40.0773 56.6592 41.4446 58.0265 41.4446 59.7134V63.0903C41.4446 64.7771 40.0773 66.1445 38.3904 66.1445Z" fill="#FBDD56" stroke="#222222" stroke-width="2"/>
<path d="M54.2496 66.1445C55.9365 66.1445 57.3038 64.7771 57.3038 63.0903V59.7134C57.3038 58.0265 55.9365 56.6592 54.2496 56.6592C52.5627 56.6592 51.1954 58.0265 51.1954 59.7134V63.0903C51.1954 64.7771 52.5627 66.1445 54.2496 66.1445Z" fill="#FBDD56" stroke="#222222" stroke-width="2"/>
<path d="M12.1904 42.6079C7.37966 40.529 -0.599872 32.8914 1.28185 28.5365C3.16372 24.1817 14.1943 24.7589 19.0051 26.8378C23.8159 28.9167 26.1903 34.1321 24.3084 38.487C22.4267 42.8418 17.0012 44.6868 12.1904 42.6079Z" fill="#83CCEB" stroke="#222222" stroke-width="2"/>
</svg>
