<svg width="82" height="68" viewBox="0 0 82 68" fill="none" xmlns="http://www.w3.org/2000/svg">
<path d="M8.63359 58.3812C5.905 58.3812 3.85781 57.586 2.54875 56.0176C1.50672 54.7688 1 53.106 1 50.934C1 49.4796 2.17906 48.3005 3.63359 48.3005C5.08812 48.3005 6.26719 49.4796 6.26719 50.934C6.26719 52.0813 6.47125 52.4971 6.59281 52.6427C6.83922 52.9379 7.60203 53.114 8.63391 53.114C10.0883 53.114 11.2675 54.293 11.2675 55.7476C11.2672 57.2021 10.0881 58.3812 8.63359 58.3812Z" fill="#F8ECC8" stroke="black" stroke-width="2"/>
<path opacity="0.05" d="M8.63352 53.114C7.6018 53.114 6.83883 52.9379 6.59243 52.6427C6.47102 52.4971 6.2668 52.0812 6.2668 50.934C6.2668 50.3587 6.08008 49.8279 5.76696 49.3948C4.75055 51.8152 4.07071 54.412 3.78571 57.1263C5.02742 57.9588 6.64914 58.3813 8.63321 58.3813C10.0876 58.3813 11.2668 57.2023 11.2668 55.7477C11.2671 54.2932 10.0881 53.114 8.63352 53.114Z" fill="black" stroke="black" stroke-width="2"/>
<path d="M50.3092 59.71V55.973C50.3092 54.0928 48.7852 52.5686 46.9049 52.5686C45.0247 52.5686 43.5005 54.0927 43.5005 55.973V62.6172C43.5005 64.5933 45.1025 66.1955 47.0788 66.1955H51.9386C53.2795 66.1955 54.3666 65.1084 54.3666 63.7675C54.3666 62.4266 53.2795 61.3395 51.9386 61.3395C51.0388 61.3394 50.3092 60.6099 50.3092 59.71Z" fill="#6E614F" stroke="black" stroke-width="2"/>
<path d="M36.5254 63.986H9.48851C7.30351 63.986 5.5321 62.2146 5.5321 60.0296C5.5321 44.8485 17.8388 32.5417 33.0199 32.5417H53.0226V47.4885C53.0227 56.5997 45.6365 63.986 36.5254 63.986Z" fill="#F8E9B4" stroke="black" stroke-width="2"/>
<path opacity="0.05" d="M33.0203 32.5415C27.4773 32.5415 22.3187 34.1837 18.001 37.0059C18.4142 42.7446 22.7638 47.3904 28.3653 48.257C29.4815 48.4296 30.5349 48.8957 31.4306 49.584C35.9631 53.0667 41.9415 55.184 48.4949 55.184C49.4014 55.184 50.2968 55.1435 51.179 55.0645C52.3548 52.7951 53.0229 50.2206 53.0229 47.4884V32.5417H33.0203V32.5415Z" fill="black" stroke="black" stroke-width="2"/>
<path d="M13.3764 41.5974C13.1144 41.5974 12.8556 41.6109 12.5989 41.6312C8.78422 45.8627 6.26562 51.2852 5.66937 57.274C7.44937 59.5791 10.2386 61.0654 13.3764 61.0654C18.7522 61.0654 23.1103 56.7073 23.1103 51.3315C23.1103 45.9554 18.7522 41.5974 13.3764 41.5974Z" fill="#7D7060" stroke="black" stroke-width="2"/>
<path d="M18.8948 60.1668L19.3931 55.4954C19.6531 53.0585 17.7431 50.9343 15.2924 50.9343C10.1535 50.9343 5.58447 54.204 3.92619 59.0679C2.73431 62.564 5.33322 66.1959 9.02697 66.1959H23.8945C24.4743 66.1959 24.9443 65.7259 24.9443 65.146C24.9443 63.044 23.2403 61.34 21.1382 61.34H19.9493C19.319 61.3396 18.8278 60.7935 18.8948 60.1668Z" fill="#6E614F" stroke="black" stroke-width="2"/>
<path d="M36.4497 59.7103V55.9732C36.4497 54.0931 34.9256 52.5688 33.0453 52.5688C31.1652 52.5688 29.6409 54.0929 29.6409 55.9732V62.6174C29.6409 64.5935 31.243 66.1957 33.2192 66.1957H38.0791C39.42 66.1957 40.507 65.1087 40.507 63.7678C40.507 62.4268 39.42 61.3398 38.0791 61.3398C37.1792 61.3396 36.4497 60.6101 36.4497 59.7103Z" fill="#6E614F" stroke="black" stroke-width="2"/>
<path d="M50.4703 53.2085C64.6294 53.2085 76.1076 43.3268 76.1076 31.1371C76.1076 18.9474 64.6294 9.06567 50.4703 9.06567C36.3112 9.06567 24.8329 18.9474 24.8329 31.1371C24.8329 43.3268 36.3112 53.2085 50.4703 53.2085Z" fill="#F8E9B4" stroke="black" stroke-width="2"/>
<path d="M55.8672 43.5449C55.8672 46.5253 53.4509 48.9416 50.4704 48.9416C47.49 48.9416 45.0737 46.5253 45.0737 43.5449V36.342H55.867V43.5449H55.8672Z" fill="#EDBCB9" stroke="black" stroke-width="2"/>
<path opacity="0.15" d="M50.4704 44.3074C49.7647 44.3074 49.1926 43.7353 49.1926 43.0296V37.0422C49.1926 36.3366 49.7646 35.7644 50.4704 35.7644C51.176 35.7644 51.7482 36.3364 51.7482 37.0422V43.0296C51.7482 43.7353 51.1762 44.3074 50.4704 44.3074Z" fill="black" stroke="black" stroke-width="2"/>
<path opacity="0.1" d="M76.013 29.2383C76.0078 29.2353 76.0028 29.2322 75.9977 29.2292C75.9855 29.0583 75.9702 28.8881 75.9545 28.7183C74.5548 17.6672 63.6802 9.06641 50.4708 9.06641C37.2619 9.06641 26.3878 17.6664 24.9872 28.7166C24.9716 28.887 24.9564 29.0577 24.9439 29.2291C24.9388 29.232 24.9338 29.2352 24.9286 29.2383C24.8666 29.8644 24.8331 30.4975 24.8331 31.1373C24.8331 38.9133 29.5048 45.7494 36.5631 49.6806C41.1003 48.7255 45.0955 46.3009 48.0278 42.9263C49.3097 41.4511 51.632 41.4511 52.9139 42.9263C55.8463 46.3009 59.8416 48.7255 64.3786 49.6806C71.4369 45.7492 76.1086 38.9133 76.1086 31.1373C76.1083 30.4975 76.075 29.8644 76.013 29.2383Z" fill="black" stroke="black" stroke-width="2"/>
<path d="M75.9976 25.5284C75.0395 12.2659 63.9773 1.80371 50.4707 1.80371C36.9642 1.80371 25.902 12.2659 24.9439 25.5284C21.9564 27.235 19.9415 30.449 19.9415 34.1359C19.9415 40.9261 25.4461 46.4303 32.2359 46.4303C38.5417 46.4303 44.1929 43.6387 48.0276 39.2254C49.3095 37.7503 51.6318 37.7503 52.9137 39.2254C56.7484 43.6387 62.3998 46.4303 68.7054 46.4303C75.4956 46.4303 80.9998 40.9257 80.9998 34.1359C80.9998 30.449 78.9848 27.2351 75.9976 25.5284Z" fill="#F8E9B4" stroke="black" stroke-width="2"/>
<path d="M46.7194 2.07715C34.9679 3.8034 25.8135 13.5156 24.9443 25.5251C27.8276 28.3296 31.7615 30.0593 36.1015 30.0593C44.9421 30.0593 52.1089 22.8926 52.1089 14.0518C52.1088 9.28621 50.0241 5.00965 46.7194 2.07715Z" fill="#7D7060" stroke="black" stroke-width="2"/>
<path opacity="0.1" d="M37.0786 5.5835C30.9371 9.36178 26.514 15.6615 25.2479 23.0399C25.4443 23.0749 25.6432 23.1048 25.8468 23.1233C28.9362 23.4048 31.8757 21.7385 33.2211 18.9433L37.4362 10.186C38.1972 8.6049 37.9657 6.87506 37.0786 5.5835Z" fill="black" stroke="black" stroke-width="2"/>
<path d="M25.194 20.7866C20.6687 19.8209 18.4985 14.6347 20.9874 10.7339L22.6351 8.15172C25.2677 4.02594 30.1854 1.96797 34.9719 2.98938C38.0016 3.63578 39.4546 7.10813 37.7882 9.71953L32.7419 17.6281C31.1312 20.1525 28.1224 21.4112 25.194 20.7866Z" fill="#6E614F" stroke="black" stroke-width="2"/>
<path d="M75.7473 20.7866C80.2726 19.8209 82.4428 14.6347 79.9539 10.7339L78.3062 8.15172C75.6735 4.02594 70.7559 1.96797 65.9693 2.98938C62.9396 3.63578 61.4867 7.10813 63.1531 9.71953L68.1993 17.6281C69.8101 20.1525 72.8187 21.4112 75.7473 20.7866Z" fill="#6E614F" stroke="black" stroke-width="2"/>
<path d="M55.6014 31.8383L54.4074 33.2605C52.3532 35.7071 48.5886 35.7071 46.5344 33.2605L45.3402 31.8383C44.7249 31.1055 45.2458 29.988 46.2028 29.988H54.7392C55.6956 29.988 56.2166 31.1055 55.6014 31.8383Z" fill="#4A5058" stroke="black" stroke-width="2"/>
<path d="M39.2007 21.4993C39.0473 21.4993 38.9229 21.6237 38.9229 21.7771V23.6799C38.9229 23.8333 39.0473 23.9577 39.2007 23.9577C39.3541 23.9577 39.4785 23.8333 39.4785 23.6799V21.7773L39.2007 21.4993ZM39.2007 21.4993C39.3539 21.4993 39.4784 21.6233 39.4785 21.7771L39.2007 21.4993Z" fill="#4A5058" stroke="black" stroke-width="2"/>
<path d="M61.4628 21.7771C61.4628 21.6237 61.5872 21.4993 61.7406 21.4993C61.8941 21.4993 62.0185 21.6236 62.0185 21.7771V23.6799C62.0185 23.8333 61.8941 23.9577 61.7406 23.9577C61.5872 23.9577 61.4628 23.8333 61.4628 23.6799V21.7771Z" fill="#4A5058" stroke="black" stroke-width="2"/>
</svg>
