<svg width="82" height="57" viewBox="0 0 82 57" fill="none" xmlns="http://www.w3.org/2000/svg">
<path d="M28.2626 22.5756C28.2626 15.0471 22.1597 8.94434 14.6314 8.94434C7.10293 8.94434 1.00012 15.0473 1.00012 22.5756C1.00012 29.3543 5.94903 34.9748 12.4303 36.0275C10.4611 38.0868 9.24918 40.8764 9.24918 43.9507C9.24918 50.2853 14.3843 55.4204 20.7189 55.4204C27.0534 55.4204 32.1886 50.2853 32.1886 43.9507L28.2626 22.5756Z" fill="#8EE2CF" stroke="#222222" stroke-width="2"/>
<path d="M14.6416 25.5464C17.1486 24.5072 18.3386 21.6326 17.2994 19.1257C16.2603 16.6188 13.3856 15.4289 10.8787 16.4681C8.37167 17.5072 7.18173 20.3819 8.22084 22.8888C9.25996 25.3957 12.1346 26.5855 14.6416 25.5464Z" fill="white" stroke="#222222" stroke-width="2"/>
<path d="M21.1976 47.5149C22.7886 46.8554 23.5438 45.0309 22.8843 43.4399C22.2248 41.8488 20.4004 41.0936 18.8093 41.7531C17.2183 42.4126 16.4631 44.2371 17.1226 45.8281C17.7821 47.4192 19.6065 48.1744 21.1976 47.5149Z" fill="white" stroke="#222222" stroke-width="2"/>
<path d="M53.7373 22.5756C53.7373 15.0471 59.8403 8.94434 67.3686 8.94434C74.8969 8.94434 80.9998 15.0473 80.9998 22.5756C80.9998 29.3543 76.0509 34.9748 69.5697 36.0275C71.5389 38.0868 72.7508 40.8764 72.7508 43.9507C72.7508 50.2853 67.6156 55.4204 61.2811 55.4204C54.9466 55.4204 49.8114 50.2853 49.8114 43.9507L53.7373 22.5756Z" fill="#8EE2CF" stroke="#222222" stroke-width="2"/>
<path d="M73.8164 22.89C74.8555 20.3831 73.6656 17.5084 71.1586 16.4693C68.6516 15.4301 65.7769 16.62 64.7378 19.1269C63.6987 21.6338 64.8886 24.5084 67.3956 25.5476C69.9026 26.5867 72.7773 25.3969 73.8164 22.89Z" fill="white" stroke="#222222" stroke-width="2"/>
<path d="M64.9239 45.838C65.5833 44.2469 64.8282 42.4225 63.2371 41.763C61.6461 41.1035 59.8216 41.8586 59.1621 43.4497C58.5026 45.0408 59.2578 46.8652 60.8489 47.5247C62.4399 48.1842 64.2644 47.429 64.9239 45.838Z" fill="white" stroke="#222222" stroke-width="2"/>
<path d="M54.913 40.4689C54.913 48.1528 48.6839 55.4202 41 55.4202C33.3161 55.4202 27.087 48.153 27.087 40.4689C27.087 32.7849 33.3161 25.9736 41 25.9736C48.6839 25.9736 54.913 32.785 54.913 40.4689Z" fill="#EFD176" stroke="#222222" stroke-width="2"/>
<path d="M41.0001 36.7144C51.3567 36.7144 59.7523 29.1674 59.7523 19.8577C59.7523 10.548 51.3567 3.00098 41.0001 3.00098C30.6436 3.00098 22.2479 10.548 22.2479 19.8577C22.2479 29.1674 30.6436 36.7144 41.0001 36.7144Z" fill="#F7EF87" stroke="#222222" stroke-width="2"/>
<path d="M33.7813 23.2981C33.7813 25.1546 31.8915 26.6595 29.5602 26.6595C27.229 26.6595 25.3391 25.1545 25.3391 23.2981C25.3391 21.4417 27.229 19.9365 29.5602 19.9365C31.8915 19.9365 33.7813 21.4415 33.7813 23.2981Z" fill="#EDA1AB"/>
<path d="M48.2186 23.2981C48.2186 25.1546 50.1085 26.6595 52.4397 26.6595C54.771 26.6595 56.6608 25.1545 56.6608 23.2981C56.6608 21.4417 54.771 19.9365 52.4397 19.9365C50.1085 19.9365 48.2186 21.4415 48.2186 23.2981Z" fill="#EDA1AB"/>
<path d="M30.2656 20.5009C29.6183 20.5009 29.0937 19.9762 29.0937 19.3291V17.5173C29.0937 16.8701 29.6183 16.3455 30.2656 16.3455C30.9129 16.3455 31.4375 16.8701 31.4375 17.5173V19.3291C31.4375 19.9762 30.9128 20.5009 30.2656 20.5009Z" fill="black"/>
<path d="M44.4031 20.7153C44.4031 18.6121 42.8795 18.4146 40.9998 18.4146C39.1203 18.4146 37.5966 18.6122 37.5966 20.7153C37.5966 22.8185 39.1203 24.5235 40.9998 24.5235C42.8794 24.5236 44.4031 22.8186 44.4031 20.7153Z" fill="black"/>
<path d="M51.7341 20.5009C51.0867 20.5009 50.5622 19.9762 50.5622 19.3291V17.5173C50.5622 16.8701 51.0867 16.3455 51.7341 16.3455C52.3814 16.3455 52.906 16.8701 52.906 17.5173V19.3291C52.906 19.9762 52.3814 20.5009 51.7341 20.5009Z" fill="black"/>
<path d="M35.3767 10.116C34.9145 10.116 34.4765 9.84085 34.2912 9.38648C33.3489 7.07679 30.1659 4.01007 27.4793 2.82367C26.8873 2.5621 26.6193 1.87023 26.8809 1.2782C27.1424 0.686167 27.8345 0.418511 28.4264 0.679605C31.6843 2.11867 35.2887 5.62726 36.4614 8.50101C36.7057 9.10023 36.4184 9.78429 35.819 10.0288C35.674 10.0879 35.524 10.116 35.3767 10.116Z" fill="black"/>
<path d="M46.6232 10.1162C46.4759 10.1162 46.326 10.0882 46.181 10.029C45.5816 9.78449 45.2941 9.10058 45.5387 8.50121C46.7113 5.62746 50.3157 2.11871 53.5737 0.679805C54.1659 0.418242 54.8577 0.686367 55.1191 1.2784C55.3807 1.87043 55.1127 2.5623 54.5207 2.82387C51.8343 4.01027 48.6513 7.07715 47.7088 9.38668C47.5234 9.8409 47.0854 10.1162 46.6232 10.1162Z" fill="black"/>
<path d="M27.1809 42.1001C27.284 43.0085 27.4712 43.9038 27.735 44.7746C31.1173 45.8717 35.9086 46.859 41 46.859C46.0914 46.859 50.8826 45.8717 54.265 44.7746C54.5287 43.9038 54.7158 43.0085 54.819 42.1001C51.6592 43.294 46.5319 44.5153 41 44.5153C35.4681 44.5153 30.3409 43.2942 27.1809 42.1001Z" fill="#D2996F" stroke="#222222"/>
</svg>
