<svg width="74" height="81" viewBox="0 0 74 81" fill="none" xmlns="http://www.w3.org/2000/svg">
<path d="M42.8051 74.1866C40.9984 74.1866 39.5342 72.7223 39.5342 70.9157C39.5342 69.1096 40.9984 67.6454 42.8051 67.6454C52.1611 67.6454 53.1054 63.7038 54.8186 56.5492C56.3738 50.0575 58.3086 41.9789 68.1212 37.1309C69.7399 36.3313 71.7015 36.9948 72.5017 38.6146C73.3019 40.2339 72.6378 42.1956 71.0186 42.9957C63.9556 46.4851 62.6073 52.1138 61.1797 58.0733C60.2636 61.8983 59.3163 65.854 56.7327 68.9375C53.7731 72.4696 49.2174 74.1866 42.8051 74.1866Z" fill="#A66DC2" stroke="#222222" stroke-width="2"/>
<path d="M18.9289 78.4071L18.9288 78.4071C15.7176 74.5994 14.2671 71.3998 13.8066 68.6304C13.3471 65.868 13.8549 63.4292 14.7466 61.1005C15.1947 59.93 15.7364 58.796 16.3011 57.6582C16.4209 57.4166 16.5423 57.174 16.6641 56.9306C17.1092 56.0408 17.5594 55.141 17.959 54.2474C18.8331 52.2929 19.5283 50.2388 19.4963 48.0254H42.4575C42.4255 50.2388 43.1207 52.2929 43.9948 54.2474C44.3945 55.141 44.8446 56.0408 45.2898 56.9307C45.4115 57.174 45.5329 57.4167 45.6528 57.6582C46.2174 58.796 46.7591 59.93 47.2073 61.1005C48.0989 63.4292 48.6067 65.868 48.1473 68.6304C47.6867 71.3998 46.2362 74.5994 43.025 78.4071L43.025 78.4071C42.1713 79.4194 40.9013 80 39.5633 80H22.3905C21.0525 80 19.7825 79.4194 18.9289 78.4071Z" fill="#A66DC2" stroke="#222222" stroke-width="2"/>
<path d="M43.5295 5.54526C43.5295 5.54526 48.347 0.186374 57.1361 1.10617C58.4532 1.24411 59.5433 2.1987 59.8247 3.49326C60.6127 7.1218 61.4525 14.9953 56.4678 22.4612L43.5295 5.54526Z" fill="#905FA8" stroke="#222222" stroke-width="2"/>
<path d="M52.3878 19.7369C55.7857 14.6484 55.7918 9.29932 55.2821 5.90881C55.2418 5.90881 55.2009 5.9082 55.1607 5.9082C50.0483 5.9082 47.2072 8.79334 47.1785 8.82569L52.3878 19.7369Z" fill="#FD9AC8" stroke="#222222" stroke-width="2"/>
<path d="M18.4247 5.54526C18.4247 5.54526 13.6072 0.186374 4.81874 1.10617C3.50099 1.24411 2.4109 2.1987 2.13014 3.49326C1.34218 7.1218 0.501724 14.9953 5.48647 22.4612L18.4247 5.54526Z" fill="#905FA8" stroke="#222222" stroke-width="2"/>
<path d="M9.56668 19.7369C6.16885 14.6484 6.16274 9.29932 6.67239 5.90881C6.71328 5.90881 6.75356 5.9082 6.79446 5.9082C11.9062 5.9082 14.748 8.79334 14.7766 8.82569L9.56668 19.7369Z" fill="#FD9AC8" stroke="#222222" stroke-width="2"/>
<path d="M56.5779 31.6404C56.5779 35.3356 55.807 38.2109 54.4956 40.4572C53.1855 42.7009 51.3003 44.3783 48.9726 45.624C44.2752 48.1378 37.8379 48.8618 30.9769 48.8618C24.116 48.8618 17.6787 48.1378 12.9813 45.624C10.6536 44.3783 8.76837 42.7009 7.45833 40.4572C6.14684 38.2109 5.37598 35.3356 5.37598 31.6404C5.37598 21.9333 8.74099 14.8925 13.5795 10.276C18.433 5.64521 24.8296 3.396 30.9769 3.396C37.1243 3.396 43.5209 5.64521 48.3744 10.276C53.2129 14.8925 56.5779 21.9333 56.5779 31.6404Z" fill="#A66DC2" stroke="#222222" stroke-width="2"/>
<path d="M43.1033 30.2802C42.4368 30.2802 41.896 29.7394 41.896 29.0729V26.7151C41.896 26.048 42.4368 25.5078 43.1033 25.5078C43.7704 25.5078 44.3106 26.048 44.3106 26.7151V29.0729C44.3106 29.7394 43.7704 30.2802 43.1033 30.2802Z" fill="black"/>
<path d="M44.7091 33.7456H41.498C40.8309 33.7456 40.2908 33.2048 40.2908 32.5383C40.2908 31.8718 40.8309 31.3311 41.498 31.3311H44.7091C45.3762 31.3311 45.9164 31.8718 45.9164 32.5383C45.9164 33.2048 45.3762 33.7456 44.7091 33.7456Z" fill="#FD9AC8"/>
<path d="M18.8506 30.2802C18.1835 30.2802 17.6433 29.7394 17.6433 29.0729V26.7151C17.6433 26.048 18.1835 25.5078 18.8506 25.5078C19.5171 25.5078 20.0579 26.048 20.0579 26.7151V29.0729C20.0579 29.7394 19.5171 30.2802 18.8506 30.2802Z" fill="black"/>
<path d="M20.4565 33.7456H17.2449C16.5784 33.7456 16.0376 33.2048 16.0376 32.5383C16.0376 31.8718 16.5784 31.3311 17.2449 31.3311H20.4565C21.123 31.3311 21.6638 31.8718 21.6638 32.5383C21.6638 33.2048 21.123 33.7456 20.4565 33.7456Z" fill="#FD9AC8"/>
<path d="M30.9771 33.6128C29.7833 33.6128 28.6615 33.1129 27.8991 32.2401C27.4603 31.7384 27.5116 30.9754 28.0139 30.5366C28.5156 30.0977 29.2785 30.149 29.7174 30.6513C30.0207 30.9986 30.4803 31.1982 30.9771 31.1982C31.4746 31.1982 31.9336 30.9992 32.2375 30.6513C32.6764 30.149 33.4387 30.0977 33.941 30.5366C34.4427 30.9754 34.494 31.7384 34.0551 32.2401C33.2928 33.1123 32.171 33.6128 30.9771 33.6128Z" fill="black"/>
<path d="M30.9771 63.1123C30.3105 63.1123 29.7698 63.6531 29.7698 64.3196V80.9999H32.1843V64.3196C32.1843 63.6531 31.6442 63.1123 30.9771 63.1123Z" fill="black"/>
<path d="M22.3668 63.1205C21.7046 63.0436 21.1059 63.519 21.0289 64.1813C20.982 64.5896 19.9505 73.9908 23.8555 81.0001H26.4592C26.4599 80.784 26.4031 80.5655 26.2822 80.3678C22.3919 74.0366 23.4136 64.5816 23.4276 64.4584C23.5039 63.7961 23.0291 63.1974 22.3668 63.1205Z" fill="black"/>
<path d="M35.4949 81.0005H38.0986C42.0037 73.9918 40.9728 64.59 40.9252 64.1816C40.8483 63.5194 40.2489 63.0445 39.5873 63.1214C38.925 63.1977 38.4502 63.7971 38.5265 64.4593C38.5375 64.5539 39.5781 74.0113 35.6725 80.3688C35.551 80.5659 35.4943 80.7844 35.4949 81.0005Z" fill="black"/>
</svg>
