<svg width="85" height="80" viewBox="0 0 85 80" fill="none" xmlns="http://www.w3.org/2000/svg">
<path d="M68.9708 17.5022C68.8458 17.3319 68.7343 17.1831 68.6378 17.0563C69.8011 15.1499 72.1383 13.8262 74.6035 12.9445C77.6655 11.8498 77.7534 7.57708 74.7532 6.34405L74.753 6.34395C68.9605 3.96511 63.9171 4.04126 60.312 4.7237C58.5125 5.06435 57.0731 5.55549 56.077 5.96523C55.6626 6.13572 55.3243 6.29236 55.068 6.41866C46.8065 0.876914 38.4524 0.345331 31.6499 2.03683C24.772 3.74705 19.3861 7.75841 17.3097 11.2452C15.5098 14.2676 13.9311 15.34 12.1009 16.0817C11.4358 16.3513 10.757 16.5703 9.99039 16.8177C9.62168 16.9367 9.23265 17.0622 8.81504 17.2031C7.55988 17.6264 6.1491 18.1582 4.53996 19.0001L4.53992 19.0002C3.25056 19.6749 2.34463 20.5045 1.76961 21.4476C1.19338 22.3927 0.986812 23.3906 1.00074 24.3399L1.00074 24.34C1.05069 27.7408 3.90316 30.3821 7.24492 30.3894C33.4974 30.4496 48.5754 38.8106 57.0849 47.0427C61.3503 51.169 63.9895 55.2862 65.5599 58.3615C66.3451 59.8992 66.8626 61.1754 67.1821 62.0606C67.2342 62.205 67.2811 62.339 67.323 62.4619C67.2845 62.4742 67.2451 62.487 67.205 62.5003C66.4843 62.7386 65.4985 63.1416 64.4067 63.8055C62.214 65.1391 59.6159 67.5138 57.8868 71.6608C56.8569 74.1298 59.483 76.5514 61.86 75.2761L61.8602 75.276C64.2941 73.9694 67.5082 72.8848 70.8049 73.5542C73.8355 74.1699 76.2743 76.0739 78.0461 78.0116L78.0463 78.0118C79.8964 80.0338 83.2535 78.5416 82.9855 75.8109L82.9855 75.8107C82.6027 71.9172 81.3461 66.779 77.4818 63.7815C81.3705 50.5528 79.124 38.8231 75.8843 30.3802C74.2365 26.0859 72.3289 22.6329 70.8309 20.2503C70.0816 19.0585 69.4338 18.1329 68.9708 17.5022Z" fill="#8BCAFF" stroke="black" stroke-width="2"/>
<path d="M81.5381 72.9635C80.8636 73.7118 79.5996 73.8717 78.7842 72.9806C76.9385 70.9621 74.3237 68.8924 71.004 68.218C67.3791 67.4813 63.9148 68.6818 61.3873 70.0387C60.8264 70.3396 60.2423 70.3219 59.7589 70.1003C59.4213 70.6972 59.1027 71.3442 58.8098 72.0461C58.1378 73.6574 59.8492 75.2206 61.3873 74.3954C63.9148 73.0391 67.3791 71.8386 71.004 72.5747C74.3237 73.2491 76.9385 75.3188 78.7842 77.3373C79.9866 78.6513 82.1643 77.6821 81.9903 75.9096C81.8976 74.9685 81.7535 73.9718 81.5381 72.9635Z" fill="#60B8FF"/>
<path d="M36.0967 24.1545C22.492 21.7802 9.43469 23.6058 2.07873 25.1372C2.5133 27.567 4.69836 29.384 7.24719 29.3895C60.2166 29.5109 68.5857 63.1682 68.5857 63.1682C68.2806 40.7616 56.8017 27.7672 36.0967 24.1545Z" fill="#FFE9C8" stroke="black" stroke-width="2"/>
<path d="M7.24719 29.3898C60.2166 29.5112 68.5857 63.1685 68.5857 63.1685C68.5607 61.321 68.4576 59.5393 68.2818 57.82C66.3976 52.2548 54.7802 25.1417 7.24719 25.0331C6.4757 25.0313 5.7384 24.8628 5.07189 24.5625C5.06213 24.5643 5.05358 24.5662 5.04382 24.5674C4.24548 24.709 3.48925 24.8524 2.78002 24.9946C2.54076 25.0422 2.307 25.0905 2.07873 25.1375C2.5133 27.5673 4.69836 29.3843 7.24719 29.3898Z" fill="#FFDCA7" stroke="black" stroke-width="2"/>
<path d="M33.0755 22.0171C33.0755 22.0171 33.9007 47.3443 45.3966 49.2681C51.3238 50.2605 47.9314 37.6458 54.4115 28.886" fill="#8BCAFF"/>
<path d="M33.0755 22.0171C33.0755 22.0171 33.9007 47.3443 45.3966 49.2681C51.3238 50.2605 47.9314 37.6458 54.4115 28.886L33.0755 22.0171Z" stroke="black" stroke-width="2" stroke-linecap="round" stroke-linejoin="round"/>
<path d="M48.2012 32.1098C46.0741 38.8591 45.6731 46.2993 43.2592 48.5955C43.9275 48.9122 44.6385 49.1417 45.3966 49.2681C51.3237 50.2605 47.9314 37.6457 54.4115 28.8866C51.8053 28.0473 49.0245 29.4981 48.2012 32.1098Z" fill="#60B8FF" stroke="black" stroke-width="2"/>
<path d="M25.2072 18.0864C24.5403 18.0864 24 17.5459 24 16.8792V14.2072C24 13.5405 24.5403 13 25.2072 13C25.8741 13 26.4144 13.5405 26.4144 14.2072V16.8792C26.4145 17.5459 25.8741 18.0864 25.2072 18.0864Z" fill="black"/>
</svg>
