<svg width="82" height="54" viewBox="0 0 82 54" fill="none" xmlns="http://www.w3.org/2000/svg">
<path d="M40.5759 29.4905C42.2378 31.1525 44.8617 31.3582 46.7618 29.9757L65.3854 16.4278C69.5633 13.3888 70.0381 7.33537 66.3846 3.68241C62.731 0.0288489 56.6781 0.503702 53.6386 4.68156L40.0912 23.3046C38.7082 25.2052 38.9139 27.8291 40.5759 29.4905Z" fill="#7ACEFA" stroke="black" stroke-width="2"/>
<path d="M21.0634 52.929C20.3811 52.929 19.6956 52.6995 19.1311 52.2283C17.8499 51.1608 17.6778 49.2559 18.7459 47.9754C21.592 44.5623 20.9597 40.4791 20.3298 38.349C19.8568 36.7492 20.7692 35.0695 22.369 34.5965C23.9669 34.1235 25.6478 35.036 26.1208 36.6357C27.7761 42.2302 26.7788 47.7734 23.384 51.8432C22.7871 52.5598 21.9283 52.929 21.0634 52.929Z" fill="#6FCE91" stroke="black" stroke-width="2"/>
<path d="M32.7803 52.929C32.0986 52.929 31.4132 52.6995 30.848 52.2283C29.5674 51.1608 29.3947 49.2559 30.4628 47.9754C33.3089 44.5623 32.6772 40.4791 32.0467 38.349C31.5737 36.7492 32.4868 35.0695 34.0859 34.5965C35.6838 34.1235 37.3647 35.036 37.8383 36.6357C39.493 42.2302 38.4957 47.7734 35.1009 51.8432C34.504 52.5598 33.6452 52.929 32.7803 52.929Z" fill="#6FCE91" stroke="black" stroke-width="2"/>
<path d="M45.6441 52.929C44.9618 52.929 44.2763 52.6995 43.7118 52.2283C42.4306 51.1608 42.2585 49.2559 43.3266 47.9754C46.1727 44.5623 45.5404 40.4791 44.9105 38.349C44.4369 36.7492 45.3499 35.0695 46.9491 34.5965C48.547 34.1235 50.2279 35.036 50.7015 36.6357C52.3568 42.2302 51.3595 47.7734 47.9647 51.8432C47.3678 52.5598 46.509 52.929 45.6441 52.929Z" fill="#6FCE91" stroke="black" stroke-width="2"/>
<path d="M57.6803 40.0646H8.50793C4.36121 40.0646 1 36.7034 1 32.5573C1 28.4105 4.36121 25.0493 8.50793 25.0493H57.6803V40.0646Z" fill="#8EE2CF" stroke="black" stroke-width="2"/>
<path d="M26.1038 25.0493H28.4475V40.0646H26.1038V25.0493Z" fill="#6FCE91" stroke="black" stroke-width="2"/>
<path d="M8.50793 25.0493C4.36121 25.0493 1 28.4105 1 32.5573C1 36.7034 4.36121 40.0646 8.50793 40.0646H22.8896C18.5177 35.5272 17.9434 30.8965 20.2621 25.0493H8.50793Z" fill="#6FCE91" stroke="black" stroke-width="2"/>
<path d="M48.481 44.7999H46.7068C42.5875 44.7999 38.8509 42.3848 37.1602 38.6287C35.4214 34.7676 35.4214 30.3468 37.1602 26.4857C38.8509 22.7296 42.5875 20.3145 46.7068 20.3145H48.481C51.6164 20.3145 54.1585 22.856 54.1585 25.9913V39.123C54.1585 42.2584 51.6164 44.7999 48.481 44.7999Z" fill="#F7EF87" stroke="black" stroke-width="2"/>
<path d="M81 33.0273C81 42.3163 72.8292 46.7316 62.7499 46.7316C52.6705 46.7316 44.4991 42.3163 44.4991 33.0273C44.4991 23.7384 52.6699 16.2085 62.7499 16.2085C72.8292 16.2085 81 23.7384 81 33.0273Z" fill="#8EE2CF" stroke="black" stroke-width="2"/>
<path d="M56.2515 32.0682C55.6045 32.0682 55.0796 31.5439 55.0796 30.8964V29.5396C55.0796 28.892 55.6045 28.3677 56.2515 28.3677C56.899 28.3677 57.4233 28.892 57.4233 29.5396V30.8964C57.4233 31.5433 56.899 32.0682 56.2515 32.0682Z" fill="#222222"/>
<path d="M72.601 32.0682C71.9534 32.0682 71.4291 31.5439 71.4291 30.8964V29.5396C71.4291 28.892 71.9534 28.3677 72.601 28.3677C73.2479 28.3677 73.7728 28.892 73.7728 29.5396V30.8964C73.7728 31.5433 73.2479 32.0682 72.601 32.0682Z" fill="#222222"/>
<path d="M64.4265 33.1104C63.2613 33.1104 62.1542 32.6062 61.3876 31.7267C60.9621 31.2391 61.0134 30.4987 61.5017 30.0733C61.9894 29.6485 62.7297 29.6991 63.1545 30.1874C63.4762 30.5555 63.9394 30.7673 64.4265 30.7673C64.9136 30.7673 65.3768 30.5555 65.6979 30.1874C66.1233 29.6991 66.8636 29.6485 67.3513 30.0733C67.8396 30.4987 67.8902 31.2391 67.4654 31.7267C66.6988 32.6062 65.591 33.1104 64.4265 33.1104Z" fill="#222222"/>
<path d="M57.8549 33.9495C57.8549 32.2594 56.1343 30.8892 54.0121 30.8892C51.8899 30.8892 50.1693 32.2594 50.1693 33.9495C50.1693 35.6389 51.8899 37.0092 54.0121 37.0092C56.1343 37.0092 57.8549 35.6389 57.8549 33.9495Z" fill="white"/>
<path d="M78.6831 33.9495C78.6831 32.2594 76.9625 30.8892 74.8403 30.8892C72.7181 30.8892 70.9976 32.2594 70.9976 33.9495C70.9976 35.6389 72.7181 37.0092 74.8403 37.0092C76.9625 37.0092 78.6831 35.6389 78.6831 33.9495Z" fill="white"/>
<path d="M38.7142 29.4905C37.0522 31.1525 34.4283 31.3582 32.5277 29.9757L13.9046 16.4278C9.72679 13.3888 9.25193 7.33537 12.9055 3.68241C16.5591 0.0288489 22.6119 0.503702 25.6515 4.68156L39.1988 23.3046C40.5813 25.2052 40.3762 27.8291 38.7142 29.4905Z" fill="#A3DEFE" stroke="black" stroke-width="2"/>
<path d="M13.1051 25.0493H15.4489V40.0646H13.1051V25.0493Z" fill="#8EE2CF" stroke="black" stroke-width="2"/>
</svg>
