<svg width="82" height="74" viewBox="0 0 82 74" fill="none" xmlns="http://www.w3.org/2000/svg">
<path d="M20.1769 54.1611C16.5726 57.9765 6.35788 62.5933 2.54241 58.9887C-1.27306 55.3844 2.75538 44.9237 6.35991 41.1083C9.96429 37.2928 15.9794 37.1217 19.7949 40.7261C23.6104 44.3304 23.7815 50.3456 20.1769 54.1611Z" fill="#596675" stroke="#222222" stroke-width="2"/>
<path opacity="0.1" d="M19.795 40.7262C15.9795 37.1217 9.96434 37.2928 6.35997 41.1084C6.06684 41.4187 5.7709 41.7735 5.47668 42.1645C6.13247 48.8262 8.52403 54.5214 12.5186 58.9614C15.6184 57.7417 18.5617 55.8712 20.1771 54.1612C23.7815 50.3457 23.6104 44.3306 19.795 40.7262Z" fill="black"/>
<path d="M61.8232 54.1611C65.4276 57.9765 75.6423 62.5933 79.4579 58.9887C83.2734 55.3844 79.245 44.9237 75.6404 41.1083C72.0361 37.2928 66.0209 37.1217 62.2054 40.7261C58.3898 44.3304 58.2187 50.3456 61.8232 54.1611Z" fill="#596675" stroke="#222222" stroke-width="2"/>
<path opacity="0.1" d="M62.2051 40.7262C66.0205 37.1217 72.0357 37.2928 75.6401 41.1084C75.9332 41.4187 76.2291 41.7735 76.5233 42.1645C75.8676 48.8262 73.476 54.5214 69.4815 58.9614C66.3816 57.7417 63.4383 55.8712 61.8229 54.1612C58.2185 50.3457 58.3896 44.3306 62.2051 40.7262Z" fill="black"/>
<path d="M73.5854 38.3177C73.5854 18.6181 58.9963 2.64844 40.9999 2.64844C23.0035 2.64844 8.41443 18.6181 8.41443 38.3177C8.41443 58.0172 23.0035 66.4463 40.9999 66.4463C58.9963 66.4463 73.5854 58.0172 73.5854 38.3177Z" fill="#596675" stroke="#222222" stroke-width="2"/>
<path d="M41.0001 23.1504C29.2157 23.1504 19.6626 33.5254 19.6626 46.3235C19.6626 53.8351 22.9545 60.5107 28.0559 64.7451C32.0238 65.8938 36.4001 66.4462 41.0001 66.4462C45.6001 66.4462 49.9763 65.894 53.9443 64.7451C59.0457 60.5107 62.3376 53.8352 62.3376 46.3235C62.3374 33.5254 52.7845 23.1504 41.0001 23.1504Z" fill="#8090A0" stroke="#222222" stroke-width="2"/>
<g opacity="0.1">
<path opacity="0.1" d="M40.9999 49.6778C40.7 49.6778 40.4 49.5634 40.1713 49.3345L37.1775 46.3409C36.7199 45.8833 36.7199 45.1412 37.1775 44.6836C37.6352 44.2259 38.3772 44.2259 38.8347 44.6836L40.9999 46.8487L43.1649 44.6837C43.6225 44.2261 44.3646 44.2261 44.8222 44.6837C45.2799 45.1414 45.2799 45.8834 44.8222 46.3411L41.8285 49.3347C41.5997 49.5634 41.2997 49.6778 40.9999 49.6778Z" fill="black"/>
<path opacity="0.1" d="M31.5948 55.4519C31.284 55.4519 30.9859 55.3284 30.7662 55.1086L27.7724 52.1148C27.3148 51.6572 27.3148 50.9152 27.7724 50.4575C28.2301 49.9998 28.9721 49.9998 29.4296 50.4575L31.5946 52.6227L33.7596 50.4575C34.2173 49.9998 34.9593 49.9998 35.4168 50.4575C35.8745 50.9152 35.8745 51.6572 35.4168 52.1148L32.4232 55.1086C32.2037 55.3284 31.9056 55.4519 31.5948 55.4519Z" fill="black"/>
<path opacity="0.1" d="M50.405 55.4519C50.0942 55.4519 49.7961 55.3285 49.5764 55.1087L46.5828 52.1149C46.1251 51.6572 46.1251 50.9152 46.5828 50.4576C47.0405 49.9999 47.7825 49.9997 48.24 50.4576L50.405 52.6227L52.57 50.4576C53.0277 49.9999 53.7697 49.9999 54.2273 50.4576C54.685 50.9152 54.685 51.6572 54.2273 52.1149L51.2336 55.1087C51.0139 55.3285 50.7159 55.4519 50.405 55.4519Z" fill="black"/>
</g>
<path opacity="0.1" d="M36.3415 3.0127C20.5521 5.48723 8.41443 20.3496 8.41443 38.3175C8.41443 58.0171 23.0035 66.4461 40.9999 66.4461C42.3772 66.4461 43.7343 66.3961 45.0666 66.2961C10.9704 63.1507 24.7216 14.053 36.3415 3.0127Z" fill="black"/>
<path d="M74.5698 1.51778C68.9256 4.78965 62.5173 6.51278 55.9933 6.51278H26.0066C19.4825 6.51278 13.0742 4.78965 7.43 1.51778C5.42062 0.352935 2.9825 2.14981 3.51062 4.41168C4.55875 8.90028 7.04047 13.1136 11.7012 15.1551C10.1881 17.739 9.31984 20.7464 9.31984 23.957C9.31984 33.5912 17.1298 41.4012 26.7641 41.4012C32.6412 41.4012 37.8395 38.4947 41.0002 34.0406C44.1608 38.4947 49.3589 41.4012 55.2362 41.4012C64.8705 41.4012 72.6805 33.5912 72.6805 23.957C72.6805 20.7464 71.8122 17.739 70.2991 15.1551C74.9598 13.1134 77.4416 8.90028 78.4897 4.41168C79.0175 2.14981 76.5794 0.352935 74.5698 1.51778Z" fill="#596675" stroke="#222222" stroke-width="2"/>
<path d="M26.764 34.9859C32.8546 34.9859 37.7921 30.0485 37.7921 23.9578C37.7921 17.8671 32.8546 12.9297 26.764 12.9297C20.6733 12.9297 15.7358 17.8671 15.7358 23.9578C15.7358 30.0485 20.6733 34.9859 26.764 34.9859Z" fill="white" stroke="#222222" stroke-width="2"/>
<path d="M55.2356 34.9859C61.3263 34.9859 66.2638 30.0485 66.2638 23.9578C66.2638 17.8671 61.3263 12.9297 55.2356 12.9297C49.145 12.9297 44.2075 17.8671 44.2075 23.9578C44.2075 30.0485 49.145 34.9859 55.2356 34.9859Z" fill="white" stroke="#222222" stroke-width="2"/>
<path opacity="0.1" d="M43.4708 27.8223L47.1909 31.664C47.8631 32.358 47.9514 33.4304 47.4018 34.2251L41.8628 42.2348C41.4456 42.8379 40.5542 42.8379 40.137 42.2348L34.5979 34.2251C34.0484 33.4304 34.1367 32.3582 34.8089 31.664L38.529 27.8223H43.4708Z" fill="black"/>
<path d="M38.864 28.1937L38.864 28.1937L36.339 30.4696L36.3389 30.4696C35.7169 31.0302 35.5927 31.9591 36.0457 32.6637C36.0457 32.6637 36.0457 32.6637 36.0457 32.6637L40.3138 39.3014L40.3138 39.3014C40.635 39.8009 41.3651 39.8009 41.6863 39.3014L41.6863 39.3014L45.9544 32.6637L45.9544 32.6637C46.4074 31.9593 46.2832 31.0304 45.6611 30.4696L38.864 28.1937ZM38.864 28.1937C40.0778 27.0995 41.9222 27.0995 43.1361 28.1937C43.1362 28.1937 43.1362 28.1937 43.1362 28.1937L45.6611 30.4696L38.864 28.1937Z" fill="#FBDD56" stroke="#222222"/>
<path opacity="0.1" d="M40.7947 26.8823C39.9798 26.9276 39.1769 27.2386 38.5292 27.8223L36.0042 30.0983C35.2001 30.8229 35.0397 32.0236 35.6251 32.934L39.8933 39.5717C40.2127 40.0683 40.7823 40.2576 41.2939 40.142C39.8722 37.6437 40.1234 29.4653 40.7947 26.8823Z" fill="black"/>
<path d="M31.5805 72.8479C28.9204 72.8479 26.7638 70.6913 26.7638 68.0312V64.8616C26.7638 62.2015 28.9204 60.0449 31.5805 60.0449C34.2407 60.0449 36.3972 62.2015 36.3972 64.8616V68.0312C36.3974 70.6913 34.2408 72.8479 31.5805 72.8479Z" fill="#FBDD56" stroke="#222222" stroke-width="2"/>
<path d="M50.4192 72.8479C53.0794 72.8479 55.2359 70.6913 55.2359 68.0312V64.8616C55.2359 62.2015 53.0794 60.0449 50.4192 60.0449C47.759 60.0449 45.6025 62.2015 45.6025 64.8616V68.0312C45.6025 70.6913 47.759 72.8479 50.4192 72.8479Z" fill="#FBDD56" stroke="#222222" stroke-width="2"/>
<path d="M26.9055 25.9551C26.2583 25.9551 25.7336 25.4304 25.7336 24.7832V22.4043C25.7336 21.7571 26.2583 21.2324 26.9055 21.2324C27.5527 21.2324 28.0774 21.7571 28.0774 22.4043V24.7832C28.0774 25.4304 27.5527 25.9551 26.9055 25.9551Z" fill="black"/>
<path d="M55.0944 25.9551C54.4472 25.9551 53.9225 25.4304 53.9225 24.7832V22.4043C53.9225 21.7571 54.4472 21.2324 55.0944 21.2324C55.7416 21.2324 56.2663 21.7571 56.2663 22.4043V24.7832C56.2663 25.4304 55.7416 25.9551 55.0944 25.9551Z" fill="black"/>
</svg>
