<svg width="77" height="62" viewBox="0 0 77 62" fill="none" xmlns="http://www.w3.org/2000/svg">
<path d="M16.105 59.3275C14.1097 59.3275 12.4917 57.7095 12.4917 55.7142V43L19.7189 45.1411V55.7142C19.7183 57.7095 18.1008 59.3275 16.105 59.3275Z" fill="#FF85AB" stroke="black" stroke-width="2"/>
<path d="M8.89854 15.2655L12.8017 11.7554C14.7347 10.0171 14.4033 6.90124 12.1517 5.60119C8.83507 3.68651 4.44725 1.85912 2.19322 3.8861C-0.0601978 5.91308 1.29356 10.47 2.84752 13.9697C3.9022 16.3464 6.96556 17.0044 8.89854 15.2655Z" fill="#FF97BD" stroke="black" stroke-width="2"/>
<path d="M49.6133 59.3275C47.618 59.3275 46 57.7095 46 55.7142V43L53.2272 45.1411V55.7142C53.2266 57.7095 51.6091 59.3275 49.6133 59.3275Z" fill="#FF85AB" stroke="black" stroke-width="2"/>
<path d="M54.6133 60.538C52.618 60.538 51 58.9199 51 56.9247V44.2104L58.2272 46.3516V56.9247C58.2266 58.9199 56.6091 60.538 54.6133 60.538Z" fill="#FFC7DE" stroke="black" stroke-width="2"/>
<path d="M21.6133 60.538C19.618 60.538 18 58.9199 18 56.9247V44.2104L25.2272 46.3516V56.9247C25.2266 58.9199 23.6091 60.538 21.6133 60.538Z" fill="#FFC7DE" stroke="black" stroke-width="2"/>
<rect x="2" y="1" width="68" height="54" rx="27" fill="#FFC7DE" stroke="black" stroke-width="2"/>
<path d="M69.7603 31.5983H66.3271C64.9758 31.5983 63.8802 30.5027 63.8802 29.1514C63.8802 27.8 64.9758 26.7045 66.3271 26.7045H69.7603C70.5025 26.7045 71.1061 26.1008 71.1061 25.358V22.0719C71.1061 20.7206 72.2017 19.625 73.553 19.625C74.9044 19.625 75.9999 20.7206 75.9999 22.0719V25.358C75.9999 28.7986 73.2009 31.5983 69.7603 31.5983Z" fill="#FFB0D0" stroke="black" stroke-width="2"/>
<path d="M19.0352 35.6876C19.0352 32.0774 15.1205 29.1514 10.292 29.1514C5.46347 29.1514 1.54929 32.0774 1.54929 35.6876C1.54929 39.2972 5.46347 42.2233 10.292 42.2233C15.1205 42.2233 19.0352 39.2972 19.0352 35.6876Z" fill="#FFD9E8" stroke="black" stroke-width="2"/>
<path d="M34.1686 17.2658L30.266 13.7556C28.333 12.0167 28.6638 8.9009 30.9154 7.60146C34.232 5.68679 38.6205 3.85878 40.8739 5.88637C43.1273 7.91335 41.7735 12.4696 40.2196 15.97C39.1649 18.3461 36.1009 19.0047 34.1686 17.2658Z" fill="#FFB0D0" stroke="black" stroke-width="2"/>
<path d="M6.25629 37.1364C6.07125 37.1364 5.92023 36.9859 5.92023 36.7997V34.575C5.92023 34.3887 6.07125 34.2383 6.25629 34.2383C6.44192 34.2383 6.59296 34.3893 6.59296 34.575V36.7997C6.59296 36.9853 6.44192 37.1364 6.25629 37.1364Z" fill="#E56E9A" stroke="black" stroke-width="2"/>
<path d="M12.6266 37.1364C12.4416 37.1364 12.2905 36.9859 12.2905 36.7997V34.575C12.2905 34.3887 12.4416 34.2383 12.6266 34.2383C12.8116 34.2383 12.9626 34.3887 12.9626 34.575V36.7997C12.9626 36.9859 12.8116 37.1364 12.6266 37.1364Z" fill="#E56E9A" stroke="black" stroke-width="2"/>
<path d="M18.2073 25.3569C18.0928 25.3569 18 25.2642 18 25.1497V23.1453C18 23.0307 18.0928 22.938 18.2073 22.938C18.3215 22.938 18.4146 23.031 18.4146 23.1453V25.1497C18.4146 25.2639 18.3215 25.3569 18.2073 25.3569Z" fill="#57565C" stroke="black" stroke-width="2"/>
<path d="M9.20728 25.3569C9.09278 25.3569 9 25.2642 9 25.1497V23.1453C9 23.0307 9.09278 22.938 9.20728 22.938C9.32149 22.938 9.41455 23.031 9.41455 23.1453V25.1497C9.41455 25.2639 9.32149 25.3569 9.20728 25.3569Z" fill="#57565C" stroke="black" stroke-width="2"/>
</svg>
