<svg width="82" height="80" viewBox="0 0 82 80" fill="none" xmlns="http://www.w3.org/2000/svg">
<path d="M39.02 1.71875H43.843V34.6857H39.02V1.71875Z" fill="#EFEDEE" stroke="black" stroke-width="2"/>
<path d="M25.3165 34.6855C24.9228 34.6855 24.5249 34.5841 24.1611 34.3711L14.8649 28.925C14.4242 28.6668 13.9005 28.6125 13.4183 28.7712L6.67943 31.8284C5.52708 32.3509 4.17027 31.8412 3.64781 30.6895C3.12535 29.5371 3.63499 28.1803 4.78673 27.6579L11.6147 24.5597C11.6642 24.5378 11.7142 24.517 11.7649 24.4981C13.5569 23.834 15.5307 24.0068 17.1799 24.9729L26.4762 30.4191C27.5675 31.0587 27.9337 32.4619 27.2947 33.5526C26.868 34.2802 26.1026 34.6855 25.3165 34.6855Z" fill="#905FA8" stroke="black" stroke-width="2"/>
<path d="M3.29009 47.2771C2.71758 47.2771 2.14507 47.0641 1.70073 46.6357C0.790086 45.758 0.763841 44.3078 1.64153 43.3977L6.3272 38.5369C7.66692 37.1593 9.52422 36.4684 11.4279 36.6314L22.1628 37.5542C23.4225 37.6629 24.3564 38.7719 24.2477 40.0323C24.1397 41.292 23.0301 42.2253 21.7703 42.1172L11.0361 41.1944C10.5063 41.1498 9.98869 41.3421 9.6176 41.7236L4.93926 46.5765C4.48943 47.0428 3.89006 47.2771 3.29009 47.2771Z" fill="#905FA8" stroke="black" stroke-width="2"/>
<path d="M7.40637 67.2576C7.16101 67.2576 6.91138 67.218 6.66663 67.1344C5.46973 66.7254 4.83069 65.4242 5.23901 64.2273L7.62854 57.2284C8.15771 55.4193 9.448 53.9514 11.1777 53.1952L21.0496 48.8794C22.208 48.3728 23.5581 48.9013 24.0653 50.0598C24.5719 51.2188 24.0427 52.5689 22.8843 53.0755L13.0125 57.3919C12.5248 57.6049 12.1628 58.0212 12.0194 58.5339C12.0078 58.5742 11.995 58.6145 11.9816 58.6547L9.57312 65.7074C9.24841 66.6589 8.35913 67.2576 7.40637 67.2576Z" fill="#905FA8" stroke="black" stroke-width="2"/>
<path d="M19.4333 78.1699C19.404 78.1699 19.3753 78.1693 19.3466 78.1681C18.0825 78.1211 17.0956 77.0591 17.1426 75.795L17.4173 68.4159C17.4752 66.5195 18.3786 64.7562 19.8941 63.5917L28.4384 57.0285C29.4418 56.2577 30.8792 56.4463 31.6494 57.4497C32.4197 58.4525 32.2317 59.8899 31.2283 60.6607L22.6846 67.2239C22.2622 67.548 22.0108 68.0393 21.9943 68.5709L21.7196 75.9647C21.6739 77.2001 20.6588 78.1699 19.4333 78.1699Z" fill="#905FA8" stroke="black" stroke-width="2"/>
<path d="M56.6843 34.6855C57.0773 34.6855 57.4759 34.5841 57.8397 34.3711L67.1359 28.925C67.576 28.6668 68.0997 28.6125 68.5824 28.7712L75.3213 31.8284C76.4731 32.3509 77.8299 31.8412 78.3529 30.6895C78.8754 29.5371 78.3651 28.1803 77.2134 27.6579L70.3854 24.5597C70.3366 24.5378 70.2865 24.517 70.2353 24.4981C68.4433 23.834 66.4694 24.0068 64.8202 24.9729L55.524 30.4191C54.4327 31.0587 54.0665 32.4619 54.7061 33.5526C55.1321 34.2802 55.8975 34.6855 56.6843 34.6855Z" fill="#905FA8" stroke="black" stroke-width="2"/>
<path d="M78.7107 47.2771C79.2826 47.2771 79.8551 47.0641 80.2994 46.6357C81.2101 45.758 81.2369 44.3078 80.3586 43.3977L75.6729 38.5369C74.3332 37.1593 72.4759 36.4684 70.5722 36.6314L59.8379 37.5542C58.5776 37.6629 57.6437 38.7719 57.7524 40.0323C57.8604 41.292 58.97 42.2253 60.2304 42.1172L70.9647 41.1944C71.4939 41.1498 72.0114 41.3421 72.3825 41.7236L77.0615 46.5765C77.5107 47.0428 78.1101 47.2771 78.7107 47.2771Z" fill="#905FA8" stroke="black" stroke-width="2"/>
<path d="M74.5938 67.2576C74.8392 67.2576 75.0888 67.218 75.3342 67.1344C76.5311 66.7254 77.1701 65.4242 76.7612 64.2273L74.3717 57.2284C73.8431 55.4193 72.5528 53.9514 70.8225 53.1952L60.9513 48.8794C59.7922 48.3728 58.4421 48.9013 57.9355 50.0598C57.4289 51.2188 57.9575 52.5689 59.1165 53.0755L68.9878 57.3919C69.4754 57.6049 69.838 58.0212 69.9814 58.5339C69.993 58.5742 70.0052 58.6145 70.0192 58.6547L72.4271 65.7067C72.7518 66.6589 73.6417 67.2576 74.5938 67.2576Z" fill="#905FA8" stroke="black" stroke-width="2"/>
<path d="M62.5675 78.1699C62.5962 78.1699 62.6248 78.1693 62.6541 78.1681C63.9176 78.1211 64.9045 77.0591 64.8575 75.795L64.5835 68.4159C64.5249 66.5195 63.6215 64.7562 62.106 63.5917L53.5617 57.0285C52.5589 56.2577 51.1209 56.4463 50.3507 57.4497C49.5804 58.4525 49.7684 59.8899 50.7718 60.6607L59.3161 67.2239C59.7379 67.548 59.9893 68.0393 60.0058 68.5709L60.2805 75.9647C60.3263 77.2001 61.3419 78.1699 62.5675 78.1699Z" fill="#905FA8" stroke="black" stroke-width="2"/>
<path d="M39.02 19.7744H43.843V34.6859H39.02V19.7744Z" fill="#D4D4D4" stroke="black" stroke-width="2"/>
<path d="M44.1299 24.6035H38.7332C26.9711 24.6035 17.4355 34.139 17.4355 45.9011C17.4355 57.6638 26.9711 67.1988 38.7332 67.1988H44.1299C55.8926 67.1988 65.4275 57.6638 65.4275 45.9011C65.4275 34.139 55.8926 24.6035 44.1299 24.6035Z" fill="#A66DC2" stroke="black" stroke-width="2"/>
<path d="M22.2646 45.9011C22.2646 34.139 31.7996 24.6035 43.5623 24.6035H38.7332C26.9711 24.6035 17.4355 34.139 17.4355 45.9011C17.4355 57.6638 26.9711 67.1988 38.7332 67.1988H43.5623C31.7996 67.1988 22.2646 57.6638 22.2646 45.9011Z" fill="#905FA8" stroke="black" stroke-width="2"/>
<path d="M29.9429 50.913C29.8284 50.913 29.7356 50.8202 29.7356 50.7057V48.0525C29.7356 47.9379 29.8284 47.8452 29.9429 47.8452C30.0574 47.8452 30.1501 47.9379 30.1501 48.0525V50.7057C30.1501 50.8202 30.0574 50.913 29.9429 50.913Z" fill="#3A484A" stroke="black" stroke-width="2"/>
<path d="M52.0577 50.913C51.9432 50.913 51.8505 50.8202 51.8505 50.7057V48.0525C51.8505 47.9379 51.9432 47.8452 52.0577 47.8452C52.172 47.8452 52.265 47.9383 52.265 48.0525V50.7057C52.265 50.8199 52.172 50.913 52.0577 50.913Z" fill="#3A484A" stroke="black" stroke-width="2"/>
<path d="M43.8437 50.1159L43.8432 50.1155C43.7575 50.0405 43.6263 50.049 43.5508 50.1353L42.7981 49.477L43.5515 50.1345C42.9114 50.8678 41.973 51.2619 41 51.2619C40.027 51.2619 39.0886 50.8678 38.4485 50.1345L39.2018 49.477L38.4492 50.1353C38.3737 50.049 38.2425 50.0405 38.1568 50.1155C38.07 50.1914 38.0617 50.3224 38.1368 50.4084C38.8346 51.2065 39.874 51.6764 41 51.6764C42.126 51.6764 43.1654 51.2065 43.8632 50.4084L43.8437 50.1159ZM43.8437 50.1159C43.9298 50.1912 43.9388 50.3216 43.8634 50.4082L43.8437 50.1159Z" fill="#3A484A" stroke="black" stroke-width="2"/>
</svg>
