<svg width="82" height="65" viewBox="0 0 82 65" fill="none" xmlns="http://www.w3.org/2000/svg">
<path d="M57.6747 18.709C37.2339 18.709 25.0177 39.629 15.6025 42.562C14.8598 39.6955 12.5503 37.412 9.54234 36.7824L4.7025 35.7696C2.79344 35.3702 1 36.8271 1 38.7776C1 42.9037 3.55875 46.5284 7.30859 47.9737C3.55875 49.419 1 53.0437 1 57.1698C1 59.1202 2.79344 60.5771 4.7025 60.1777L9.54234 59.1649C12.6289 58.519 14.9798 56.1315 15.6575 53.1599C26.9009 54.2993 47.763 63.309 57.6747 63.309C70.5569 63.309 81 53.3249 81 41.009C81 28.693 70.5569 18.709 57.6747 18.709Z" fill="#8EAFE2" stroke="#222222" stroke-width="2"/>
<path d="M21.3317 54.1554C32.9457 56.8128 49.2578 63.3089 57.6745 63.3089C68.9671 63.3089 78.3848 55.6365 80.5373 45.447C56.4418 37.8129 43.8743 53.6648 21.3317 54.1554Z" fill="#FCF2D0" stroke="#222222"/>
<path d="M35.455 51.8818C31.0957 53.1312 26.4737 54.0436 21.3317 54.1554C27.8062 55.6368 35.7403 58.3109 42.9529 60.3878C39.5325 58.0036 37.1023 55.0775 35.455 51.8818Z" fill="#F6E3A3" stroke="#222222"/>
<path d="M55.3337 39.6475C57.3784 39.6475 59.036 38.3276 59.036 36.6993C59.036 35.071 57.3784 33.751 55.3337 33.751C53.2889 33.751 51.6313 35.071 51.6313 36.6993C51.6313 38.3276 53.2889 39.6475 55.3337 39.6475Z" fill="white"/>
<path d="M75.4014 39.6475C77.4462 39.6475 79.1038 38.3276 79.1038 36.6993C79.1038 35.071 77.4462 33.751 75.4014 33.751C73.3567 33.751 71.6991 35.071 71.6991 36.6993C71.6991 38.3276 73.3567 39.6475 75.4014 39.6475Z" fill="white"/>
<path d="M57.4915 34.9301C56.8443 34.9301 56.3196 34.4055 56.3196 33.7582V32.4507C56.3196 31.8033 56.8443 31.2788 57.4915 31.2788C58.1386 31.2788 58.6633 31.8033 58.6633 32.4507V33.7582C58.6633 34.4055 58.1388 34.9301 57.4915 34.9301Z" fill="black"/>
<path d="M73.244 34.9301C72.5968 34.9301 72.0721 34.4055 72.0721 33.7582V32.4507C72.0721 31.8033 72.5968 31.2788 73.244 31.2788C73.8912 31.2788 74.4159 31.8033 74.4159 32.4507V33.7582C74.4159 34.4055 73.8912 34.9301 73.244 34.9301Z" fill="black"/>
<path d="M65.3678 35.9338C64.2333 35.9338 63.1545 35.4424 62.4078 34.5858C61.9826 34.0979 62.0334 33.3577 62.5214 32.9324C63.0093 32.5072 63.7495 32.5582 64.1748 33.046C64.4761 33.3918 64.9109 33.59 65.3678 33.59C65.8247 33.59 66.2595 33.3916 66.5608 33.046C66.9861 32.558 67.7262 32.5074 68.2142 32.9324C68.7022 33.3577 68.7529 34.0979 68.3278 34.5858C67.5812 35.4424 66.5023 35.9338 65.3678 35.9338Z" fill="black"/>
<path d="M48.0588 16.637C47.4117 16.637 46.887 16.1125 46.887 15.4651V13.1206C46.887 12.4733 47.4117 11.9487 48.0588 11.9487C48.706 11.9487 49.2307 12.4733 49.2307 13.1206V15.4651C49.2307 16.1123 48.706 16.637 48.0588 16.637Z" fill="#A3DEFE" stroke="#222222"/>
<path fill-rule="evenodd" clip-rule="evenodd" d="M46.8872 7.45771C46.8737 5.01679 44.884 3.03516 42.4399 3.03516C41.7928 3.03516 41.2681 2.51063 41.2681 1.86328C41.2681 1.21594 41.7928 0.691406 42.4399 0.691406C44.7737 0.691406 46.8362 1.87453 48.0592 3.67281C49.2821 1.87453 51.3446 0.691406 53.6785 0.691406C54.3257 0.691406 54.8504 1.21594 54.8504 1.86328C54.8504 2.51063 54.3257 3.03516 53.6785 3.03516C51.2262 3.03516 49.231 5.03031 49.231 7.48266C49.231 7.49196 49.2309 7.50125 49.2307 7.5105V8.55383C49.2307 9.20117 48.706 9.7257 48.0588 9.7257C47.4117 9.7257 46.887 9.20117 46.887 8.55383V7.48242C46.887 7.47416 46.887 7.46592 46.8872 7.45771Z" fill="#A3DEFE"/>
<path d="M46.8872 7.45771L47.3873 7.46803L47.3872 7.45494L46.8872 7.45771ZM48.0592 3.67281L47.6457 3.95399L48.0592 4.56193L48.4726 3.95399L48.0592 3.67281ZM49.2307 7.5105L48.7307 7.49886V7.5105H49.2307ZM47.3872 7.45494C47.3722 4.73916 45.1592 2.53516 42.4399 2.53516V3.53516C44.6087 3.53516 46.3753 5.29443 46.3872 7.46047L47.3872 7.45494ZM42.4399 2.53516C42.0689 2.53516 41.7681 2.23444 41.7681 1.86328H40.7681C40.7681 2.78681 41.5167 3.53516 42.4399 3.53516V2.53516ZM41.7681 1.86328C41.7681 1.49212 42.0689 1.19141 42.4399 1.19141V0.191406C41.5167 0.191406 40.7681 0.939752 40.7681 1.86328H41.7681ZM42.4399 1.19141C44.6007 1.19141 46.5116 2.2863 47.6457 3.95399L48.4726 3.39164C47.1608 1.46276 44.9467 0.191406 42.4399 0.191406V1.19141ZM48.4726 3.95399C49.6068 2.2863 51.5176 1.19141 53.6785 1.19141V0.191406C51.1716 0.191406 48.9575 1.46276 47.6457 3.39164L48.4726 3.95399ZM53.6785 1.19141C54.0496 1.19141 54.3504 1.49212 54.3504 1.86328H55.3504C55.3504 0.939752 54.6018 0.191406 53.6785 0.191406V1.19141ZM54.3504 1.86328C54.3504 2.23444 54.0496 2.53516 53.6785 2.53516V3.53516C54.6018 3.53516 55.3504 2.78681 55.3504 1.86328H54.3504ZM53.6785 2.53516C50.95 2.53516 48.731 4.75417 48.731 7.48266H49.731C49.731 5.30645 51.5023 3.53516 53.6785 3.53516V2.53516ZM48.731 7.48266C48.731 7.48807 48.731 7.49347 48.7308 7.49886L49.7306 7.52214C49.7309 7.50902 49.731 7.49586 49.731 7.48266H48.731ZM48.7307 7.5105V8.55383H49.7307V7.5105H48.7307ZM48.7307 8.55383C48.7307 8.92499 48.4299 9.2257 48.0588 9.2257V10.2257C48.9821 10.2257 49.7307 9.47736 49.7307 8.55383H48.7307ZM48.0588 9.2257C47.6877 9.2257 47.387 8.92499 47.387 8.55383H46.387C46.387 9.47736 47.1356 10.2257 48.0588 10.2257V9.2257ZM47.387 8.55383V7.48242H46.387V8.55383H47.387ZM47.387 7.48242C47.387 7.47763 47.387 7.47283 47.3871 7.46803L46.3873 7.44738C46.3871 7.45902 46.387 7.4707 46.387 7.48242H47.387Z" fill="#222222"/>
<path d="M38.1534 53.0289C36.099 53.0289 34.5643 51.1398 34.9851 49.1289L36.052 44.0305C36.8629 40.155 40.2801 37.3789 44.2395 37.3789C47.1402 37.3789 49.3071 40.0463 48.7129 42.8855L48.3184 44.7709C47.3116 49.5825 43.0691 53.0291 38.1534 53.0289Z" fill="#6A96D7" stroke="#222222" stroke-width="2"/>
<path d="M58.3073 44.4519C58.1058 47.8262 57.0598 50.6751 55.1798 52.9367C52.1633 56.565 46.9683 58.7494 39.7316 59.4384C41.5402 59.9811 43.3245 60.5037 45.0528 60.9798C50.3456 59.7959 54.3456 57.6061 56.982 54.435C59.3061 51.6397 60.5434 48.1286 60.6759 43.9839C59.8783 44.1201 59.0897 44.2781 58.3073 44.4519Z" fill="#F6E3A3" stroke="#222222"/>
<path d="M55.8076 63.2169C56.4648 63.2762 57.0895 63.3086 57.6746 63.3086C59.8842 63.3086 62.0212 63.0138 64.0468 62.4648C70.8256 58.5328 74.037 52.1458 73.3278 43.78C72.5228 43.6645 71.729 43.5728 70.9479 43.5078C71.9907 53.6661 66.7993 60.4298 55.8076 63.2169Z" fill="#F6E3A3" stroke="#222222"/>
</svg>
