<svg width="82" height="67" viewBox="0 0 82 67" fill="none" xmlns="http://www.w3.org/2000/svg">
<path d="M8.63359 57.5777C5.905 57.5777 3.85781 56.7825 2.54875 55.2141C1.50672 53.9654 1 52.3025 1 50.1305C1 48.6761 2.17906 47.4971 3.63359 47.4971C5.08812 47.4971 6.26719 48.6761 6.26719 50.1305C6.26719 51.2779 6.47125 51.6936 6.59281 51.8393C6.83922 52.1344 7.60203 52.3105 8.63391 52.3105C10.0883 52.3105 11.2675 53.4896 11.2675 54.9441C11.2672 56.3986 10.0881 57.5777 8.63359 57.5777Z" fill="white" stroke="black" stroke-width="2"/>
<path opacity="0.05" d="M8.63352 52.31C7.6018 52.31 6.83883 52.1339 6.59243 51.8388C6.47102 51.6932 6.2668 51.2772 6.2668 50.13C6.2668 49.5547 6.08008 49.0239 5.76696 48.5908C4.75055 51.0113 4.07071 53.608 3.78571 56.3224C5.02742 57.1549 6.64914 57.5774 8.63321 57.5774C10.0876 57.5774 11.2668 56.3983 11.2668 54.9438C11.2671 53.4893 10.0881 52.31 8.63352 52.31Z" fill="white" stroke="black" stroke-width="2"/>
<path d="M50.3092 58.9061V55.169C50.3092 53.2889 48.7852 51.7646 46.9049 51.7646C45.0247 51.7646 43.5005 53.2887 43.5005 55.169V61.8132C43.5005 63.7893 45.1025 65.3915 47.0788 65.3915H51.9386C53.2795 65.3915 54.3666 64.3045 54.3666 62.9636C54.3666 61.6226 53.2795 60.5356 51.9386 60.5356C51.0388 60.5354 50.3092 59.8059 50.3092 58.9061Z" fill="white" stroke="black" stroke-width="2"/>
<path d="M36.5254 63.1825H9.48851C7.30351 63.1825 5.5321 61.4111 5.5321 59.2261C5.5321 44.045 17.8388 31.7383 33.0199 31.7383H53.0226V46.685C53.0227 55.7962 45.6365 63.1825 36.5254 63.1825Z" fill="white" stroke="black" stroke-width="2"/>
<path opacity="0.05" d="M33.0203 31.7378C27.4773 31.7378 22.3187 33.38 18.001 36.2022C18.4142 41.9409 22.7638 46.5867 28.3653 47.4533C29.4815 47.6259 30.5349 48.092 31.4306 48.7803C35.9631 52.263 41.9415 54.3803 48.4949 54.3803C49.4014 54.3803 50.2968 54.3398 51.179 54.2608C52.3548 51.9914 53.0229 49.4169 53.0229 46.6847V31.7379H33.0203V31.7378Z" fill="white"/>
<path d="M13.3764 40.7939C13.1144 40.7939 12.8556 40.8074 12.5989 40.8277C8.78422 45.0593 6.26562 50.4818 5.66937 56.4705C7.44937 58.7757 10.2386 60.2619 13.3764 60.2619C18.7522 60.2619 23.1103 55.9038 23.1103 50.528C23.1103 45.1519 18.7522 40.7939 13.3764 40.7939Z" fill="white" stroke="black" stroke-width="2"/>
<path d="M18.8948 59.3634L19.3931 54.692C19.6531 52.2551 17.7431 50.1309 15.2924 50.1309C10.1535 50.1309 5.58447 53.4005 3.92619 58.2645C2.73431 61.7605 5.33322 65.3924 9.02697 65.3924H23.8945C24.4743 65.3924 24.9443 64.9224 24.9443 64.3426C24.9443 62.2405 23.2403 60.5365 21.1382 60.5365H19.9493C19.319 60.5362 18.8278 59.9901 18.8948 59.3634Z" fill="white" stroke="black" stroke-width="2"/>
<path d="M36.4497 58.907V55.17C36.4497 53.2898 34.9256 51.7656 33.0453 51.7656C31.1652 51.7656 29.6409 53.2897 29.6409 55.17V61.8142C29.6409 63.7903 31.243 65.3925 33.2192 65.3925H38.0791C39.42 65.3925 40.507 64.3055 40.507 62.9645C40.507 61.6236 39.42 60.5366 38.0791 60.5366C37.1792 60.5364 36.4497 59.8069 36.4497 58.907Z" fill="white" stroke="black" stroke-width="2"/>
<path d="M50.4703 52.4045C64.6294 52.4045 76.1076 42.5228 76.1076 30.3331C76.1076 18.1434 64.6294 8.26172 50.4703 8.26172C36.3112 8.26172 24.8329 18.1434 24.8329 30.3331C24.8329 42.5228 36.3112 52.4045 50.4703 52.4045Z" fill="white" stroke="black" stroke-width="2"/>
<path d="M55.8672 42.7409C55.8672 45.7214 53.4509 48.1376 50.4704 48.1376C47.49 48.1376 45.0737 45.7214 45.0737 42.7409V35.5381H55.867V42.7409H55.8672Z" fill="white" stroke="black" stroke-width="2"/>
<path opacity="0.15" d="M50.4704 43.5039C49.7647 43.5039 49.1926 42.9319 49.1926 42.2261V36.2388C49.1926 35.5331 49.7646 34.9609 50.4704 34.9609C51.176 34.9609 51.7482 35.533 51.7482 36.2388V42.2261C51.7482 42.9319 51.1762 43.5039 50.4704 43.5039Z" fill="white"/>
<path opacity="0.1" d="M76.013 28.4346C76.0078 28.4316 76.0028 28.4285 75.9977 28.4255C75.9855 28.2546 75.9702 28.0844 75.9545 27.9146C74.5548 16.8635 63.6802 8.2627 50.4708 8.2627C37.2619 8.2627 26.3878 16.8627 24.9872 27.9129C24.9716 28.0833 24.9564 28.2539 24.9439 28.4254C24.9388 28.4283 24.9338 28.4314 24.9286 28.4346C24.8666 29.0607 24.8331 29.6938 24.8331 30.3336C24.8331 38.1096 29.5048 44.9457 36.5631 48.8769C41.1003 47.9218 45.0955 45.4972 48.0278 42.1225C49.3097 40.6474 51.632 40.6474 52.9139 42.1225C55.8463 45.4972 59.8416 47.9218 64.3786 48.8769C71.4369 44.9455 76.1086 38.1096 76.1086 30.3336C76.1083 29.6938 76.075 29.0607 76.013 28.4346Z" fill="white"/>
<path d="M75.9976 24.7247C75.0395 11.4622 63.9773 1 50.4707 1C36.9642 1 25.902 11.4622 24.9439 24.7247C21.9564 26.4312 19.9415 29.6453 19.9415 33.3322C19.9415 40.1223 25.4461 45.6266 32.2359 45.6266C38.5417 45.6266 44.1929 42.835 48.0276 38.4217C49.3095 36.9466 51.6318 36.9466 52.9137 38.4217C56.7484 42.835 62.3998 45.6266 68.7054 45.6266C75.4956 45.6266 80.9998 40.122 80.9998 33.3322C80.9998 29.6453 78.9848 26.4314 75.9976 24.7247Z" fill="white" stroke="black" stroke-width="2"/>
<path d="M46.7194 1.27344C34.9679 2.99969 25.8135 12.7119 24.9443 24.7214C27.8276 27.5259 31.7615 29.2556 36.1015 29.2556C44.9421 29.2556 52.1089 22.0889 52.1089 13.2481C52.1088 8.4825 50.0241 4.20594 46.7194 1.27344Z" fill="white" stroke="black" stroke-width="2"/>
<path d="M25.194 19.9828C20.6687 19.0172 18.4985 13.831 20.9874 9.9302L22.6351 7.34801C25.2677 3.22223 30.1854 1.16426 34.9719 2.18567C38.0016 2.83207 39.4546 6.30442 37.7882 8.91582L32.7419 16.8244C31.1312 19.3488 28.1224 20.6075 25.194 19.9828Z" fill="white" stroke="black" stroke-width="2"/>
<path d="M75.7473 19.9828C80.2726 19.0172 82.4428 13.831 79.9539 9.9302L78.3062 7.34801C75.6735 3.22223 70.7559 1.16426 65.9693 2.18567C62.9396 2.83207 61.4867 6.30442 63.1531 8.91582L68.1993 16.8244C69.8101 19.3488 72.8187 20.6075 75.7473 19.9828Z" fill="white" stroke="black" stroke-width="2"/>
<path d="M55.6014 31.0344L54.4074 32.4566C52.3532 34.9031 48.5886 34.9031 46.5344 32.4566L45.3402 31.0344C44.7249 30.3016 45.2458 29.1841 46.2028 29.1841H54.7392C55.6956 29.1841 56.2166 30.3016 55.6014 31.0344Z" fill="white" stroke="black" stroke-width="2"/>
<path d="M39.2007 20.6953C39.0473 20.6953 38.9229 20.8197 38.9229 20.9731V22.8759C38.9229 23.0294 39.0473 23.1538 39.2007 23.1538C39.3541 23.1538 39.4785 23.0294 39.4785 22.8759V20.9733L39.2007 20.6953ZM39.2007 20.6953C39.3539 20.6953 39.4784 20.8194 39.4785 20.9731L39.2007 20.6953Z" fill="white" stroke="black" stroke-width="2"/>
<path d="M61.4628 20.9731C61.4628 20.8197 61.5872 20.6953 61.7406 20.6953C61.8941 20.6953 62.0185 20.8196 62.0185 20.9731V22.8759C62.0185 23.0294 61.8941 23.1538 61.7406 23.1538C61.5872 23.1538 61.4628 23.0294 61.4628 22.8759V20.9731Z" fill="white" stroke="black" stroke-width="2"/>
</svg>
