<svg width="82" height="76" viewBox="0 0 82 76" fill="none" xmlns="http://www.w3.org/2000/svg">
<path d="M10.2101 30.8027C9.73744 29.2668 9.6751 27.6112 10.0667 26.0077L11.2953 20.9766C11.6817 19.3918 10.7113 17.7935 9.1265 17.4071C7.54166 17.0207 5.94337 17.991 5.55697 19.5758L4.32837 24.6054C3.73087 27.0527 3.77149 29.5743 4.39415 31.9438L7.6415 33.2529L10.2101 30.8027Z" fill="white" stroke="#222222" stroke-width="2"/>
<path d="M71.7898 30.8027C72.2624 29.2668 72.3248 27.6112 71.9332 26.0077L70.7046 20.9766C70.3182 19.3918 71.2885 17.7935 72.8735 17.4071C74.4584 17.0207 76.0567 17.991 76.4431 19.5758L77.6717 24.6054C78.2692 27.0527 78.2285 29.5743 77.6059 31.9438L74.3585 33.2529L71.7898 30.8027Z" fill="white" stroke="#222222" stroke-width="2"/>
<path d="M17.4555 41.2042C17.4555 42.8362 16.1339 44.1578 14.5019 44.1578C13.0977 44.1578 12.5069 43.5012 10.7517 41.5518C9.97202 40.686 8.91046 39.486 7.59905 37.9873C6.05655 36.2252 4.97295 34.1493 4.39404 31.9434C5.90639 30.4631 8.19311 29.9771 10.2101 30.8024C10.5781 32.0024 11.1958 33.1282 12.0447 34.097C15.1231 37.6142 16.0447 38.5999 16.3148 38.8717C17.01 39.4135 17.4555 40.2556 17.4555 41.2042Z" fill="white" stroke="#222222" stroke-width="2"/>
<path d="M64.5444 41.2042C64.5444 42.8362 65.8659 44.1578 67.498 44.1578C68.9022 44.1578 69.493 43.5012 71.2481 41.5518C72.0278 40.686 73.0894 39.486 74.4008 37.9873C75.9433 36.2252 77.0269 34.1493 77.6058 31.9434C76.0935 30.4631 73.8067 29.9771 71.7897 30.8024C71.4217 32.0024 70.8041 33.1282 69.9552 34.097C66.8767 37.6142 65.9552 38.5999 65.685 38.8717C64.9898 39.4135 64.5444 40.2556 64.5444 41.2042Z" fill="white" stroke="#222222" stroke-width="2"/>
<path d="M11.6567 57.9014C10.8027 59.579 10.985 61.4897 11.5977 63.2398C11.9487 64.244 12.4195 65.1959 12.9631 66.109L12.9952 66.1631C13.5403 67.0745 13.2416 68.2526 12.3302 68.7976C11.4745 69.3075 10.3758 69.0693 9.79687 68.2828C8.99343 67.1976 8.29468 66.0465 7.73108 64.8178C6.31499 61.7343 6.02123 58.347 7.52514 55.2245C7.61624 55.0356 7.71249 54.8515 7.81718 54.6709H10.8948L11.6567 57.9014Z" fill="white" stroke="#222222" stroke-width="2"/>
<path d="M20.0836 51.0167C20.0836 51.0167 18.9157 51.8656 17.1621 53.1415C15.341 54.4631 13.0913 55.5431 11.871 57.5162C11.7916 57.6428 11.7208 57.7711 11.6566 57.9011C9.90971 57.5195 8.48018 56.2926 7.81689 54.6706C9.1858 52.2706 11.5958 50.5204 13.6328 48.7297C15.2599 47.2986 16.3468 46.3448 16.3468 46.3448C17.589 45.2528 19.481 45.3743 20.5729 46.6165C21.7157 47.9164 21.476 49.999 20.0836 51.0167Z" fill="white" stroke="#222222" stroke-width="2"/>
<path d="M23.6959 63.5308C23.3071 65.3727 23.9796 67.1702 25.026 68.7011C25.6259 69.5797 26.3281 70.3764 27.0901 71.1169L27.1351 71.1607C27.8984 71.8989 27.916 73.1143 27.1776 73.8775C26.4839 74.5921 25.3609 74.6477 24.5974 74.0388C23.5396 73.1997 22.5657 72.2696 21.7021 71.2297C19.5334 68.6202 18.3695 65.4255 19.0102 62.0195C19.0491 61.8133 19.0943 61.6106 19.1484 61.4092L22.1202 60.6094L23.6959 63.5308Z" fill="white" stroke="#222222" stroke-width="2"/>
<path d="M30.0447 54.6931C30.0447 54.6931 29.1375 55.8164 27.7758 57.5042C26.3608 59.2536 24.4689 60.8812 23.8033 63.1036C23.7597 63.2464 23.7244 63.3886 23.6963 63.5309C21.9103 63.6166 20.2111 62.8033 19.1489 61.4094C19.8471 58.7361 21.7196 56.4197 23.2213 54.1611C24.4205 52.3562 25.2222 51.1529 25.2222 51.1529C26.138 49.7758 27.9964 49.4014 29.3738 50.317C30.8149 51.2751 31.1247 53.3486 30.0447 54.6931Z" fill="white" stroke="#222222" stroke-width="2"/>
<path d="M70.3435 57.9014C71.1975 59.579 71.0152 61.4897 70.4025 63.2398C70.0514 64.244 69.5807 65.1959 69.0371 66.109L69.005 66.1631C68.4599 67.0745 68.7586 68.2526 69.67 68.7976C70.5257 69.3075 71.6244 69.0693 72.2033 68.2828C73.0068 67.1976 73.7055 66.0465 74.2691 64.8178C75.6852 61.7343 75.979 58.347 74.4751 55.2245C74.384 55.0356 74.2877 54.8515 74.183 54.6709H71.1054L70.3435 57.9014Z" fill="white" stroke="#222222" stroke-width="2"/>
<path d="M61.9166 51.0167C61.9166 51.0167 63.0846 51.8656 64.8382 53.1415C66.6593 54.4631 68.909 55.5431 70.1293 57.5162C70.2087 57.6428 70.2795 57.7711 70.3437 57.9011C72.0906 57.5195 73.5201 56.2926 74.1834 54.6706C72.8145 52.2706 70.4045 50.5204 68.3674 48.7297C66.7404 47.2986 65.6535 46.3448 65.6535 46.3448C64.4113 45.2528 62.5193 45.3743 61.4274 46.6165C60.2846 47.9164 60.5243 49.999 61.9166 51.0167Z" fill="white" stroke="#222222" stroke-width="2"/>
<path d="M58.3042 63.5308C58.693 65.3727 58.0205 67.1702 56.9741 68.7011C56.3742 69.5797 55.6721 70.3764 54.91 71.1169L54.865 71.1607C54.1017 71.8989 54.0841 73.1143 54.8225 73.8775C55.5163 74.5921 56.6392 74.6477 57.4027 74.0388C58.4605 73.1997 59.4344 72.2696 60.298 71.2297C62.4668 68.6202 63.6307 65.4255 62.9899 62.0195C62.951 61.8133 62.9058 61.6106 62.8518 61.4092L59.8799 60.6094L58.3042 63.5308Z" fill="white" stroke="#222222" stroke-width="2"/>
<path d="M51.9557 54.6931C51.9557 54.6931 52.8628 55.8164 54.2246 57.5042C55.6396 59.2536 57.5315 60.8812 58.1971 63.1036C58.2407 63.2464 58.276 63.3886 58.3041 63.5309C60.0901 63.6166 61.7894 62.8033 62.8515 61.4094C62.1534 58.7361 60.2808 56.4197 58.7791 54.1611C57.5799 52.3562 56.7782 51.1529 56.7782 51.1529C55.8624 49.7758 54.0039 49.4014 52.6266 50.317C51.1855 51.2751 50.8757 53.3486 51.9557 54.6931Z" fill="white" stroke="#222222" stroke-width="2"/>
<path d="M41.0002 53.268C44.9112 53.268 48.7637 53.7392 52.5415 54.805C54.6624 55.4033 56.8029 56.2919 59.0293 56.2751C65.8896 56.2236 70.9742 50.1565 70.5647 43.129C69.6492 27.4129 54.4907 17.916 41.0002 17.916C27.5099 17.916 12.3513 27.4131 11.4358 43.129C11.0264 50.1565 16.111 56.2236 22.9711 56.2751C25.1974 56.2919 27.338 55.4034 29.4588 54.805C33.2368 53.7394 37.0893 53.268 41.0002 53.268Z" fill="white" stroke="#222222" stroke-width="2"/>
<path d="M21.7185 11.3802C21.6591 10.6875 20.7727 10.4287 20.3632 10.9905C19.1964 12.5906 17.4618 13.802 16.0607 14.5981C14.9475 15.2306 13.5817 14.3544 13.6938 13.0789C14.0589 8.92453 16.4169 5.86421 17.5083 4.65202C17.8061 4.32139 17.7518 3.80702 17.3942 3.54186C15.6975 2.28358 13.6222 1.54248 11.3797 1.54248C5.6472 1.54248 1 6.37843 1 12.3442C1 18.3099 5.6472 23.1458 11.3797 23.1458C17.1122 23.1458 21.7594 18.3097 21.7594 12.3442C21.7594 12.0192 21.7457 11.6978 21.7185 11.3802Z" fill="white" stroke="#222222" stroke-width="2"/>
<path d="M60.2815 11.3793C60.3409 10.6867 61.2273 10.4279 61.6369 10.9896C62.8036 12.5898 64.5383 13.8012 65.9394 14.5973C67.0525 15.2298 68.4183 14.3536 68.3062 13.0781C67.9411 8.92371 65.5831 5.86339 64.4917 4.6512C64.1939 4.32057 64.2483 3.8062 64.6056 3.54104C66.3023 2.2826 68.3776 1.5415 70.6201 1.5415C76.3528 1.5415 80.9998 6.37761 80.9998 12.3431C80.9998 18.3086 76.3526 23.1447 70.6201 23.1447C64.8876 23.1447 60.2404 18.3086 60.2404 12.3431C60.2406 12.0184 60.2544 11.697 60.2815 11.3793Z" fill="white" stroke="#222222" stroke-width="2"/>
<path d="M27.3919 48.7063C26.7252 48.7063 26.1847 48.1658 26.1847 47.4991V45.0363C26.1847 44.3696 26.7252 43.8291 27.3919 43.8291C28.0586 43.8291 28.5991 44.3696 28.5991 45.0363V47.4991C28.5992 48.1658 28.0588 48.7063 27.3919 48.7063Z" fill="black"/>
<path d="M54.6079 48.7063C53.9412 48.7063 53.4007 48.1658 53.4007 47.4991V45.0363C53.4007 44.3696 53.9412 43.8291 54.6079 43.8291C55.2747 43.8291 55.8151 44.3696 55.8151 45.0363V47.4991C55.8153 48.1658 55.2748 48.7063 54.6079 48.7063Z" fill="black"/>
<path d="M41 50.0206C39.3427 50.0206 37.7874 49.3286 36.7325 48.122C36.2938 47.62 36.3449 46.8573 36.8469 46.4186C37.3489 45.9798 38.1116 46.0309 38.5503 46.5329C39.1466 47.215 40.0392 47.6061 40.9999 47.6061C41.9605 47.6061 42.8535 47.215 43.4496 46.5329C43.8883 46.0308 44.651 45.9797 45.153 46.4186C45.655 46.8575 45.7063 47.62 45.2674 48.122C44.2128 49.3287 42.6574 50.0206 41 50.0206Z" fill="black"/>
</svg>
