<svg width="85" height="80" viewBox="0 0 85 80" fill="none" xmlns="http://www.w3.org/2000/svg">
<path d="M68.9708 17.3152C68.8458 17.1449 68.7343 16.9961 68.6378 16.8693C69.8011 14.9629 72.1383 13.6392 74.6035 12.7575C77.6655 11.6628 77.7534 7.39006 74.7532 6.15704L74.753 6.15694C68.9605 3.7781 63.9171 3.85425 60.312 4.53669C58.5125 4.87734 57.0731 5.36848 56.077 5.77822C55.6626 5.9487 55.3243 6.10535 55.068 6.23165C46.8065 0.689903 38.4524 0.158319 31.6499 1.84982C24.772 3.56004 19.3861 7.5714 17.3097 11.0582C15.5098 14.0806 13.9311 15.153 12.1009 15.8947C11.4358 16.1643 10.757 16.3833 9.99039 16.6307C9.62168 16.7497 9.23265 16.8752 8.81504 17.016C7.55988 17.4394 6.1491 17.9712 4.53996 18.8131L4.53992 18.8131C3.25056 19.4878 2.34463 20.3175 1.76961 21.2606C1.19338 22.2057 0.986812 23.2036 1.00074 24.1529L1.00074 24.1529C1.05069 27.5538 3.90316 30.1951 7.24492 30.2023C33.4974 30.2625 48.5754 38.6236 57.0849 46.8557C61.3503 50.982 63.9895 55.0991 65.5599 58.1745C66.3451 59.7121 66.8626 60.9884 67.1821 61.8736C67.2342 62.018 67.2811 62.152 67.323 62.2749C67.2845 62.2872 67.2451 62.3 67.205 62.3133C66.4843 62.5516 65.4985 62.9545 64.4067 63.6185C62.214 64.9521 59.6159 67.3268 57.8868 71.4738C56.8569 73.9427 59.483 76.3644 61.86 75.0891L61.8602 75.089C64.2941 73.7824 67.5082 72.6978 70.8049 73.3672C73.8355 73.9829 76.2743 75.8869 78.0461 77.8246L78.0463 77.8248C79.8964 79.8468 83.2535 78.3546 82.9855 75.6239L82.9855 75.6237C82.6027 71.7302 81.3461 66.592 77.4818 63.5945C81.3705 50.3657 79.124 38.6361 75.8843 30.1932C74.2365 25.8988 72.3289 22.4459 70.8309 20.0633C70.0816 18.8715 69.4338 17.9459 68.9708 17.3152Z" fill="white" stroke="black" stroke-width="2"/>
<path d="M81.5381 72.7765C80.8636 73.5247 79.5996 73.6847 78.7842 72.7935C76.9385 70.7751 74.3237 68.7054 71.004 68.031C67.3791 67.2943 63.9148 68.4948 61.3873 69.8516C60.8264 70.1525 60.2423 70.1348 59.7589 69.9133C59.4213 70.5102 59.1027 71.1572 58.8098 71.8591C58.1378 73.4704 59.8492 75.0335 61.3873 74.2083C63.9148 72.8521 67.3791 71.6516 71.004 72.3877C74.3237 73.0621 76.9385 75.1318 78.7842 77.1502C79.9866 78.4643 82.1643 77.4951 81.9903 75.7226C81.8976 74.7815 81.7535 73.7848 81.5381 72.7765Z" fill="white"/>
<path d="M36.0967 23.9675C22.492 21.5932 9.43469 23.4188 2.07873 24.9502C2.5133 27.38 4.69836 29.197 7.24719 29.2025C60.2166 29.3239 68.5857 62.9812 68.5857 62.9812C68.2806 40.5746 56.8017 27.5802 36.0967 23.9675Z" fill="white" stroke="black" stroke-width="2"/>
<path d="M7.24719 29.2028C60.2166 29.3242 68.5857 62.9815 68.5857 62.9815C68.5607 61.134 68.4576 59.3523 68.2818 57.633C66.3976 52.0678 54.7802 24.9547 7.24719 24.8461C6.4757 24.8442 5.7384 24.6758 5.07189 24.3755C5.06213 24.3773 5.05358 24.3792 5.04382 24.3804C4.24548 24.522 3.48925 24.6654 2.78002 24.8076C2.54076 24.8552 2.307 24.9034 2.07873 24.9504C2.5133 27.3803 4.69836 29.1973 7.24719 29.2028Z" fill="white" stroke="black" stroke-width="2"/>
<path d="M33.0755 21.8301C33.0755 21.8301 33.9007 47.1572 45.3966 49.0811C51.3238 50.0735 47.9314 37.4588 54.4115 28.699" fill="white"/>
<path d="M33.0755 21.8301C33.0755 21.8301 33.9007 47.1572 45.3966 49.0811C51.3238 50.0735 47.9314 37.4588 54.4115 28.699L33.0755 21.8301Z" stroke="black" stroke-width="2" stroke-linecap="round" stroke-linejoin="round"/>
<path d="M48.2012 31.9228C46.0741 38.6721 45.6731 46.1123 43.2592 48.4084C43.9275 48.7252 44.6385 48.9547 45.3966 49.0811C51.3237 50.0735 47.9314 37.4587 54.4115 28.6996C51.8053 27.8603 49.0245 29.3111 48.2012 31.9228Z" fill="white" stroke="black" stroke-width="2"/>
<path d="M25.4144 16.6922V16.6924C25.4144 16.8066 25.3219 16.8994 25.2072 16.8994C25.0927 16.8994 25 16.8067 25 16.6922V14.0202C25 13.9057 25.0927 13.813 25.2072 13.813C25.3217 13.813 25.4144 13.9057 25.4144 14.0202V16.6922Z" fill="white" stroke="black" stroke-width="2"/>
</svg>
