<svg width="82" height="54" viewBox="0 0 82 54" fill="none" xmlns="http://www.w3.org/2000/svg">
<path d="M40.5759 29.2713C42.2378 30.9333 44.8617 31.139 46.7618 29.7565L65.3854 16.2085C69.5633 13.1696 70.0381 7.11613 66.3846 3.46318C62.731 -0.190389 56.6781 0.284464 53.6386 4.46232L40.0912 23.0854C38.7082 24.986 38.9139 27.6099 40.5759 29.2713Z" fill="white" stroke="black" stroke-width="2"/>
<path d="M21.0634 52.7098C20.3811 52.7098 19.6956 52.4803 19.1311 52.0091C17.8499 50.9416 17.6778 49.0367 18.7459 47.7562C21.592 44.3431 20.9597 40.2598 20.3298 38.1297C19.8568 36.53 20.7692 34.8503 22.369 34.3773C23.9669 33.9043 25.6478 34.8167 26.1208 36.4165C27.7761 42.0109 26.7788 47.5541 23.384 51.624C22.7871 52.3405 21.9283 52.7098 21.0634 52.7098Z" fill="white" stroke="black" stroke-width="2"/>
<path d="M32.7803 52.7098C32.0986 52.7098 31.4132 52.4803 30.848 52.0091C29.5674 50.9416 29.3947 49.0367 30.4628 47.7562C33.3089 44.3431 32.6772 40.2598 32.0467 38.1297C31.5737 36.53 32.4868 34.8503 34.0859 34.3773C35.6838 33.9043 37.3647 34.8167 37.8383 36.4165C39.493 42.0109 38.4957 47.5541 35.1009 51.624C34.504 52.3405 33.6452 52.7098 32.7803 52.7098Z" fill="white" stroke="black" stroke-width="2"/>
<path d="M45.6441 52.7098C44.9618 52.7098 44.2763 52.4803 43.7118 52.0091C42.4306 50.9416 42.2585 49.0367 43.3266 47.7562C46.1727 44.3431 45.5404 40.2598 44.9105 38.1297C44.4369 36.53 45.3499 34.8503 46.9491 34.3773C48.547 33.9043 50.2279 34.8167 50.7015 36.4165C52.3568 42.0109 51.3595 47.5541 47.9647 51.624C47.3678 52.3405 46.509 52.7098 45.6441 52.7098Z" fill="white" stroke="black" stroke-width="2"/>
<path d="M57.6803 39.8453H8.50793C4.36121 39.8453 1 36.4841 1 32.338C1 28.1913 4.36121 24.8301 8.50793 24.8301H57.6803V39.8453Z" fill="white" stroke="black" stroke-width="2"/>
<path d="M26.1038 24.8301H28.4475V39.8453H26.1038V24.8301Z" fill="white" stroke="black" stroke-width="2"/>
<path d="M8.50793 24.8301C4.36121 24.8301 1 28.1913 1 32.338C1 36.4841 4.36121 39.8453 8.50793 39.8453H22.8896C18.5177 35.308 17.9434 30.6772 20.2621 24.8301H8.50793Z" fill="white" stroke="black" stroke-width="2"/>
<path d="M48.481 44.5807H46.7068C42.5875 44.5807 38.8509 42.1655 37.1602 38.4094C35.4214 34.5483 35.4214 30.1276 37.1602 26.2665C38.8509 22.5104 42.5875 20.0952 46.7068 20.0952H48.481C51.6164 20.0952 54.1585 22.6367 54.1585 25.7721V38.9038C54.1585 42.0392 51.6164 44.5807 48.481 44.5807Z" fill="white" stroke="black" stroke-width="2"/>
<path d="M81 32.8081C81 42.097 72.8292 46.5123 62.7499 46.5123C52.6705 46.5123 44.4991 42.097 44.4991 32.8081C44.4991 23.5192 52.6699 15.9893 62.7499 15.9893C72.8292 15.9893 81 23.5192 81 32.8081Z" fill="white" stroke="black" stroke-width="2"/>
<path d="M38.7142 29.2713C37.0522 30.9333 34.4283 31.139 32.5277 29.7565L13.9046 16.2085C9.72679 13.1696 9.25193 7.11613 12.9055 3.46318C16.5591 -0.190389 22.6119 0.284464 25.6515 4.46232L39.1988 23.0854C40.5813 24.986 40.3762 27.6099 38.7142 29.2713Z" fill="white" stroke="black" stroke-width="2"/>
<path d="M13.1051 24.8301H15.4489V39.8453H13.1051V24.8301Z" fill="white" stroke="black" stroke-width="2"/>
<path d="M57.8549 33.7302C57.8549 32.0402 56.1343 30.6699 54.0121 30.6699C51.8899 30.6699 50.1693 32.0402 50.1693 33.7302C50.1693 35.4197 51.8899 36.7899 54.0121 36.7899C56.1343 36.7899 57.8549 35.4197 57.8549 33.7302Z" fill="white"/>
<path d="M78.6831 33.7302C78.6831 32.0402 76.9625 30.6699 74.8403 30.6699C72.7181 30.6699 70.9976 32.0402 70.9976 33.7302C70.9976 35.4197 72.7181 36.7899 74.8403 36.7899C76.9625 36.7899 78.6831 35.4197 78.6831 33.7302Z" fill="white"/>
<path d="M56.2515 31.849C55.6045 31.849 55.0796 31.3247 55.0796 30.6771V29.3203C55.0796 28.6727 55.6045 28.1484 56.2515 28.1484C56.899 28.1484 57.4233 28.6727 57.4233 29.3203V30.6771C57.4233 31.3241 56.899 31.849 56.2515 31.849Z" fill="#222222"/>
<path d="M72.601 31.849C71.9534 31.849 71.4291 31.3247 71.4291 30.6771V29.3203C71.4291 28.6727 71.9534 28.1484 72.601 28.1484C73.2479 28.1484 73.7728 28.6727 73.7728 29.3203V30.6771C73.7728 31.3241 73.2479 31.849 72.601 31.849Z" fill="#222222"/>
<path d="M64.4265 32.8912C63.2613 32.8912 62.1542 32.387 61.3876 31.5075C60.9621 31.0198 61.0134 30.2795 61.5017 29.854C61.9894 29.4292 62.7297 29.4799 63.1545 29.9682C63.4762 30.3362 63.9394 30.548 64.4265 30.548C64.9136 30.548 65.3768 30.3362 65.6979 29.9682C66.1233 29.4799 66.8636 29.4292 67.3513 29.854C67.8396 30.2795 67.8902 31.0198 67.4654 31.5075C66.6988 32.387 65.591 32.8912 64.4265 32.8912Z" fill="#222222"/>
</svg>
