<svg width="81" height="72" viewBox="0 0 81 72" fill="none" xmlns="http://www.w3.org/2000/svg">
<path d="M47.357 63.4251H42.9632V57.9683H36.2557V66.865C36.2557 68.6695 37.7187 70.1325 39.5232 70.1325H47.357C49.2092 70.1325 50.7107 68.6311 50.7107 66.7787C50.7106 64.9267 49.2092 63.4251 47.357 63.4251Z" fill="white" stroke="#222222" stroke-width="2"/>
<path d="M29.5986 19.854C29.5986 9.53561 37.8833 1.03566 48.1733 1.00011C58.4987 0.964375 66.8802 9.32372 66.88 19.6407V33.0512C66.88 46.2602 56.1721 56.9681 42.9631 56.9681H24.9169C11.7079 56.9681 1 46.2602 1 33.0512V24.55C1 23.3347 2.38228 22.6358 3.36097 23.3561L3.94535 22.5622L3.36098 23.3561C6.66621 25.7888 10.6627 27.1009 14.7666 27.1009H22.3516C26.354 27.1009 29.5986 23.8565 29.5986 19.854Z" fill="white" stroke="#222222" stroke-width="2"/>
<path d="M80 23.2764C80 26.6997 73.6978 29.4747 65.9238 29.4747C58.1497 29.4747 51.8475 27.8669 51.8475 23.2764C51.8475 18.6859 58.1497 17.0781 65.9238 17.0781C73.6978 17.078 80 19.8531 80 23.2764Z" fill="white" stroke="#222222" stroke-width="2"/>
<path d="M43.5421 22.1863C45.9517 22.1863 47.905 20.6305 47.905 18.7113C47.905 16.7921 45.9517 15.2363 43.5421 15.2363C41.1326 15.2363 39.1793 16.7921 39.1793 18.7113C39.1793 20.6305 41.1326 22.1863 43.5421 22.1863Z" fill="#FFA6BB"/>
<path d="M49.6736 16.2066C49.0264 16.2066 48.5018 15.682 48.5018 15.0347C48.5018 13.9903 47.6521 13.1406 46.6077 13.1406C45.5633 13.1406 44.7136 13.9903 44.7136 15.0347C44.7136 15.682 44.1889 16.2066 43.5417 16.2066C42.8946 16.2066 42.3699 15.682 42.3699 15.0347C42.3699 12.698 44.271 10.7969 46.6077 10.7969C48.9446 10.7969 50.8455 12.698 50.8455 15.0347C50.8455 15.6819 50.3208 16.2066 49.6736 16.2066Z" fill="black"/>
<path d="M34.1365 48.3017C26.4907 50.9651 18.1335 46.9262 15.4701 39.2804L15.3709 38.9956C14.9904 37.9032 15.9576 36.8179 17.0863 37.0706C18.5287 37.3935 20.0326 37.307 21.4285 36.8207L29.1946 34.1154C33.112 32.7507 37.394 34.8203 38.7587 38.7376C40.1234 42.6551 38.0538 46.9371 34.1365 48.3017Z" fill="white" stroke="#222222" stroke-width="2"/>
<path d="M36.0182 63.4251H31.6245V57.9683H24.9171V66.865C24.9171 68.6695 26.3801 70.1325 28.1846 70.1325H36.0184C37.8706 70.1325 39.3721 68.6311 39.3721 66.7787C39.372 64.9267 37.8704 63.4251 36.0182 63.4251Z" fill="white" stroke="#222222" stroke-width="2"/>
</svg>
