<svg width="82" height="56" viewBox="0 0 82 56" fill="none" xmlns="http://www.w3.org/2000/svg">
<path d="M21.5663 31.347C24.7609 28.1522 24.5717 22.7833 19.0747 17.2863C14.0014 12.213 7.23985 11.0339 3.58344 10.7869C2.12063 10.6881 0.906881 11.9014 1.00563 13.3641C1.25251 17.0203 2.43157 23.7822 7.50516 28.8558C8.58047 29.9311 9.65047 30.8013 10.7005 31.4838C11.1913 31.8027 11.1913 32.515 10.7005 32.8339C9.65047 33.5164 8.58047 34.3867 7.50516 35.4619C2.43141 40.5358 1.25251 47.2978 1.00563 50.9541C0.906881 52.4166 2.12047 53.6295 3.58297 53.5308C7.23922 53.2839 14.0011 52.1048 19.0747 47.0313C24.5717 41.5342 24.7609 36.1653 21.5663 32.9705C21.1172 32.5216 21.1172 31.7959 21.5663 31.347Z" fill="white" stroke="#222222" stroke-width="2"/>
<path d="M20.9416 32.5191C20.6347 32.5191 20.3285 32.3994 20.0985 32.1613L9.22473 20.9005C8.77519 20.4349 8.78816 19.693 9.25363 19.2435C9.71941 18.7938 10.4611 18.8069 10.9107 19.2724L21.7844 30.5332C22.2339 30.9988 22.221 31.7406 21.7555 32.1902C21.528 32.4097 21.2347 32.5191 20.9416 32.5191Z" fill="black"/>
<path d="M10.0672 45.4032C9.77426 45.4032 9.48083 45.294 9.25333 45.0743C8.78786 44.6248 8.77473 43.8829 9.22442 43.4173L20.0982 32.1565C20.5475 31.6912 21.2896 31.6781 21.7552 32.1276C22.2207 32.5772 22.2336 33.319 21.7841 33.7847L10.9104 45.0454C10.6805 45.2836 10.3741 45.4032 10.0672 45.4032Z" fill="black"/>
<path d="M67.7452 13.845C65.9032 7.45376 60.2949 3.16079 50.9616 2.20173C37.0982 0.777199 22.2352 3.96236 33.5672 14.8991L67.7452 13.845Z" fill="white" stroke="#222222" stroke-width="2"/>
<path d="M39.8392 6.2349C39.2483 5.97053 38.5551 6.23506 38.2908 6.82584C38.0264 7.41662 38.2909 8.10975 38.8817 8.37428C41.3372 9.47334 42.9886 11.2299 43.7897 13.5952C43.9551 14.0837 44.4109 14.3915 44.8995 14.3915C45.0242 14.3915 45.1509 14.3715 45.2756 14.3293C45.8886 14.1216 46.2172 13.4565 46.0095 12.8435C44.9906 9.83475 42.9147 7.61146 39.8392 6.2349ZM57.6976 13.3758C57.4212 11.3162 55.0042 7.33396 52.6814 5.79506C52.1417 5.43787 51.4147 5.58521 51.0572 6.12474C50.6997 6.66428 50.8472 7.39146 51.3867 7.74896C53.0442 8.84709 55.1784 12.2258 55.3745 13.6874C55.4536 14.276 55.9567 14.7037 56.5345 14.7037C56.5864 14.7037 56.639 14.7002 56.6918 14.6932C57.3334 14.6071 57.7836 14.0174 57.6976 13.3758Z" fill="black"/>
<path d="M81 32.1588C81 46.1945 68.4893 54.1178 53.8188 54.1178C35.1349 54.1178 22.4732 44.7499 17.2348 34.6672C16.4193 33.0977 16.4193 31.2199 17.2348 29.6503C22.4732 19.5677 35.1348 10.1997 53.8188 10.1997C68.4893 10.1997 81 18.123 81 32.1588Z" fill="white" stroke="#222222" stroke-width="2"/>
<path d="M46.5195 24.1947C47.1668 24.1947 47.6914 23.67 47.6914 23.0228C47.6914 22.3757 47.1668 21.851 46.5195 21.851C45.5462 21.851 44.7546 21.0593 44.7546 20.0861C44.7546 19.113 45.5462 18.3213 46.5195 18.3213C47.1668 18.3213 47.6914 17.7966 47.6914 17.1494C47.6914 16.5022 47.1668 15.9775 46.5195 15.9775C44.254 15.9775 42.4109 17.8207 42.4109 20.0861C42.4109 21.236 42.8862 22.2763 43.6501 23.0228C42.8864 23.7692 42.4109 24.8097 42.4109 25.9594C42.4109 28.2249 44.254 30.068 46.5195 30.068C47.1668 30.068 47.6914 29.5433 47.6914 28.8961C47.6914 28.2489 47.1668 27.7242 46.5195 27.7242C45.5462 27.7242 44.7546 26.9325 44.7546 25.9594C44.7546 24.9864 45.5462 24.1947 46.5195 24.1947Z" fill="black"/>
<path d="M36.0947 30.0681C36.7419 30.0681 37.2666 29.5434 37.2666 28.8962C37.2666 28.249 36.7419 27.7243 36.0947 27.7243C35.1216 27.7243 34.3298 26.9326 34.3298 25.9595C34.3298 24.9864 35.1216 24.1948 36.0947 24.1948C36.7419 24.1948 37.2666 23.6701 37.2666 23.0229C37.2666 22.3758 36.7419 21.8511 36.0947 21.8511C33.8292 21.8511 31.9861 23.694 31.9861 25.9595C31.9861 27.1094 32.4614 28.1498 33.2253 28.8962C32.4616 29.6426 31.9861 30.6831 31.9861 31.8329C31.9861 34.0984 33.8292 35.9415 36.0947 35.9415C36.7419 35.9415 37.2666 35.4168 37.2666 34.7697C37.2666 34.1225 36.7419 33.5978 36.0947 33.5978C35.1216 33.5978 34.3298 32.8061 34.3298 31.8329C34.3298 30.8598 35.1216 30.0681 36.0947 30.0681Z" fill="black"/>
<path d="M55.1716 47.6884C52.9062 47.6884 51.063 45.8453 51.063 43.5798C51.063 41.3143 52.9062 39.4712 55.1716 39.4712C55.819 39.4712 56.3435 39.9959 56.3435 40.6431C56.3435 41.2903 55.819 41.8149 55.1716 41.8149C54.1985 41.8149 53.4068 42.6067 53.4068 43.5798C53.4068 44.5529 54.1984 45.3446 55.1716 45.3446C55.819 45.3446 56.3435 45.8693 56.3435 46.5165C56.3435 47.1637 55.8188 47.6884 55.1716 47.6884Z" fill="black"/>
<path d="M34.5084 44.5272C37.3944 47.4131 41.2663 48.2823 44.2749 45.2736C50.2322 39.3163 50.6347 32.5406 48.5649 30.4708C46.4949 28.4009 39.7192 28.8034 33.762 34.7608C30.7533 37.7694 31.6225 41.6413 34.5084 44.5272Z" fill="white" stroke="#222222" stroke-width="2"/>
<path d="M39.898 35.5854C39.4405 35.1278 38.6984 35.1278 38.2408 35.5854L32.3884 41.4378C32.6826 42.1565 33.0986 42.8575 33.6184 43.5223L39.8981 37.2428C40.3556 36.7851 40.3556 36.0431 39.898 35.5854ZM43.4503 39.1378C42.9926 38.6801 42.2508 38.6801 41.793 39.1378L35.5134 45.4173C36.1783 45.9371 36.8792 46.3531 37.598 46.6473L43.4505 40.795C43.908 40.3373 43.908 39.5953 43.4503 39.1378Z" fill="black"/>
<path d="M56.6936 34.3948C58.5929 34.3948 60.1326 33.1686 60.1326 31.6559C60.1326 30.1432 58.5929 28.917 56.6936 28.917C54.7942 28.917 53.2545 30.1432 53.2545 31.6559C53.2545 33.1686 54.7942 34.3948 56.6936 34.3948Z" fill="#F27281"/>
<path d="M75.3357 34.3948C77.2351 34.3948 78.7748 33.1686 78.7748 31.6559C78.7748 30.1432 77.2351 28.917 75.3357 28.917C73.4364 28.917 71.8967 30.1432 71.8967 31.6559C71.8967 33.1686 73.4364 34.3948 75.3357 34.3948Z" fill="#F27281"/>
<path d="M60.3346 29.8471C59.6873 29.8471 59.1627 29.3225 59.1627 28.6753C59.1627 28.4187 58.9541 28.21 58.6976 28.21C58.441 28.21 58.2324 28.4187 58.2324 28.6753C58.2324 29.3225 57.7079 29.8471 57.0605 29.8471C56.4132 29.8471 55.8887 29.3225 55.8887 28.6753C55.8887 27.1264 57.1487 25.8662 58.6976 25.8662C60.2463 25.8662 61.5065 27.1262 61.5065 28.6753C61.5065 29.3226 60.9818 29.8471 60.3346 29.8471Z" fill="black"/>
<path d="M74.9682 29.8471C74.3208 29.8471 73.7963 29.3225 73.7963 28.6753C73.7963 28.4187 73.5876 28.21 73.331 28.21C73.0744 28.21 72.8658 28.4187 72.8658 28.6753C72.8658 29.3225 72.3413 29.8471 71.694 29.8471C71.0466 29.8471 70.5221 29.3225 70.5221 28.6753C70.5221 27.1264 71.7821 25.8662 73.331 25.8662C74.8799 25.8662 76.1401 27.1262 76.1401 28.6753C76.1401 29.3226 75.6155 29.8471 74.9682 29.8471Z" fill="black"/>
<path d="M66.0142 32.5514C65.0098 32.5514 64.055 32.1165 63.3941 31.3584C62.9687 30.8704 63.0197 30.1303 63.5076 29.705C63.9955 29.2798 64.7356 29.3304 65.1611 29.8185C65.3766 30.0659 65.6875 30.2078 66.0142 30.2078C66.3408 30.2078 66.6517 30.0659 66.8672 29.8185C67.2925 29.3307 68.0323 29.28 68.5206 29.705C69.0084 30.1303 69.0594 30.8704 68.6342 31.3584C67.9733 32.1165 67.0184 32.5514 66.0142 32.5514Z" fill="black"/>
</svg>
