<svg width="68" height="82" viewBox="0 0 68 82" fill="none" xmlns="http://www.w3.org/2000/svg">
<path d="M36.3331 80.7778C35.8078 80.9691 35.2313 81.0439 34.638 80.975C32.603 80.7381 31.1452 78.8964 31.3819 76.8614L31.6303 74.7255L28.9039 72.8555C26.1694 70.9798 24.7536 67.6544 25.2969 64.3834L26.2983 58.3519C26.6336 56.3308 28.5442 54.9642 30.5656 55.2997C32.5867 55.6353 33.9533 57.5458 33.6178 59.567L32.6164 65.5989C32.5433 66.0384 32.7335 66.485 33.1008 66.737L37.6722 69.8725C38.8069 70.6509 39.4178 71.9936 39.2586 73.3606L38.7514 77.7191C38.5838 79.1608 37.6103 80.313 36.3331 80.7778Z" fill="white" stroke="#222222" stroke-width="2"/>
<path d="M58.0668 72.8673C56.7895 73.3322 55.3032 73.0755 54.2479 72.0784L51.0579 69.0658C50.0571 68.1208 49.6621 66.6997 50.031 65.3739L51.5176 60.0334C51.6371 59.6044 51.4957 59.14 51.1574 58.8506L46.5129 54.8734C44.9566 53.5408 44.7755 51.1989 46.108 49.6426C47.4409 48.0862 49.7824 47.9051 51.3388 49.2378L55.9832 53.2147C58.5018 55.3709 59.5548 58.8286 58.6656 62.023L57.779 65.208L59.3423 66.6845C60.8318 68.0912 60.899 70.4392 59.4923 71.9287C59.0823 72.3628 58.5921 72.6762 58.0668 72.8673Z" fill="white" stroke="#222222" stroke-width="2"/>
<path d="M51.527 45.1052C49.9941 45.6632 48.2187 45.156 47.2313 43.7599C46.048 42.0872 46.4448 39.7722 48.1174 38.5889L60.886 29.5566C62.5595 28.373 64.874 28.7702 66.0571 30.4429C67.2404 32.1155 66.8437 34.4305 65.171 35.6138L52.4024 44.6461C52.1256 44.8419 51.8309 44.9946 51.527 45.1052Z" fill="white" stroke="#222222" stroke-width="2"/>
<path d="M23.498 55.3071C23.1939 55.4177 22.8705 55.49 22.5323 55.5182L6.94516 56.8064C4.90328 56.9752 3.11125 55.4566 2.9425 53.4147C2.77375 51.3729 4.29141 49.5815 6.33406 49.4119L21.9213 48.1236C23.9631 47.9549 25.7552 49.4735 25.9239 51.5154C26.0648 53.2193 25.0306 54.7493 23.498 55.3071Z" fill="white" stroke="#222222" stroke-width="2"/>
<path d="M53.6883 38.4509C50.7571 30.397 40.2939 26.8112 30.3181 30.4418C20.3423 34.0725 14.6315 43.5447 17.5627 51.5987C20.4939 59.6526 30.9571 63.2384 40.9329 59.6078C50.9087 55.9771 56.6195 46.5049 53.6883 38.4509Z" fill="white" stroke="#222222" stroke-width="2"/>
<path d="M34.9993 43.3019C29.184 45.4185 26.549 52.8474 29.114 59.8949C29.2147 60.1719 29.3229 60.4435 29.4365 60.7108C33.0201 61.3455 37.0144 61.0335 40.9338 59.6069C44.8532 58.1804 48.1136 55.8518 50.4508 53.0621C50.366 52.7843 50.2741 52.5068 50.1733 52.2297C47.6083 45.1826 40.8146 41.1854 34.9993 43.3019Z" fill="white" stroke="#222222" stroke-width="2"/>
<path d="M49.8471 11.1725C49.6187 10.9515 49.4611 10.6678 49.4062 10.3547C49.2939 9.71326 49.1254 9.07279 48.895 8.43951C46.7601 2.57404 40.2746 -0.450178 34.4092 1.68467C32.8878 2.23842 31.5592 3.08638 30.4611 4.1392C30.19 4.39904 29.8386 4.55545 29.4645 4.58888C26.8476 4.82373 24.1859 5.40545 21.555 6.3631C18.924 7.32076 16.5111 8.58592 14.3554 10.0881C14.0473 10.3028 13.6776 10.409 13.3029 10.3842C11.785 10.2837 10.2221 10.4879 8.70074 11.0417C2.83527 13.1765 -0.188947 19.662 1.9459 25.5275C2.17637 26.1608 2.45902 26.7597 2.78527 27.3233C2.94449 27.5984 3.00621 27.917 2.97308 28.2331C2.65965 31.2345 2.99058 34.2797 4.05777 37.212C8.40308 49.1508 21.6175 50.1223 35.6262 45.0236C49.635 39.9248 59.1331 30.6864 54.7878 18.7478C53.7204 15.8156 52.0165 13.2703 49.8471 11.1725Z" fill="white" stroke="#222222" stroke-width="2"/>
<path d="M19.3572 27.071C18.5527 24.8604 15.6497 23.8876 12.8731 24.8981C10.0966 25.9087 8.49793 28.5198 9.30245 30.7304C10.107 32.9409 13.01 33.9137 15.7866 32.9032C18.5631 31.8927 20.1618 29.2815 19.3572 27.071Z" fill="#FFA6BB"/>
<path d="M36.5483 20.8114C37.3528 23.0219 40.2558 23.9947 43.0324 22.9842C45.8089 21.9737 47.4076 19.3625 46.6031 17.152C45.7986 14.9414 42.8955 13.9686 40.119 14.9791C37.3424 15.9896 35.7438 18.6008 36.5483 20.8114Z" fill="#FFA6BB"/>
<path d="M13.4494 25.0391C12.9707 25.0391 12.5213 24.7437 12.348 24.2677L11.5627 22.1101C11.3413 21.5018 11.6549 20.8294 12.263 20.608C12.8713 20.3868 13.5438 20.7004 13.7651 21.3085L14.5504 23.4662C14.7718 24.0745 14.4582 24.7468 13.8501 24.9682C13.7177 25.0163 13.5824 25.0391 13.4494 25.0391Z" fill="black"/>
<path d="M28.1588 24.5072C26.1474 25.2392 23.9233 24.2022 23.1913 22.1908L22.2275 19.543C22.0277 18.9939 22.3108 18.3867 22.8599 18.1869L28.1554 16.2594C28.7044 16.0596 29.3116 16.3427 29.5114 16.8917L30.4752 19.5396C31.2072 21.5511 30.1702 23.7752 28.1588 24.5072Z" fill="black"/>
<path d="M39.0158 15.7335C38.5371 15.7335 38.0877 15.4381 37.9144 14.9621L37.1291 12.8045C36.9077 12.1963 37.2213 11.5238 37.8294 11.3024C38.4379 11.081 39.1101 11.3948 39.3315 12.0028L40.1168 14.1604C40.3382 14.7687 40.0246 15.441 39.4165 15.6624C39.2841 15.7107 39.1488 15.7335 39.0158 15.7335Z" fill="black"/>
<g opacity="0.1">
<path opacity="0.1" d="M46.5502 34.2837C47.1986 34.2837 47.7242 33.758 47.7242 33.1096C47.7242 32.4612 47.1986 31.9355 46.5502 31.9355C45.9017 31.9355 45.3761 32.4612 45.3761 33.1096C45.3761 33.758 45.9017 34.2837 46.5502 34.2837Z" fill="black"/>
<path opacity="0.1" d="M5.90478 20.8647C6.55319 20.8647 7.07884 20.3391 7.07884 19.6907C7.07884 19.0422 6.55319 18.5166 5.90478 18.5166C5.25636 18.5166 4.73071 19.0422 4.73071 19.6907C4.73071 20.3391 5.25636 20.8647 5.90478 20.8647Z" fill="black"/>
<path opacity="0.1" d="M23.3315 54.8081C23.9799 54.8081 24.5056 54.2824 24.5056 53.634C24.5056 52.9856 23.9799 52.46 23.3315 52.46C22.6831 52.46 22.1575 52.9856 22.1575 53.634C22.1575 54.2824 22.6831 54.8081 23.3315 54.8081Z" fill="black"/>
<path opacity="0.1" d="M49.3032 28.7163C49.9516 28.7163 50.4773 28.1906 50.4773 27.5422C50.4773 26.8938 49.9516 26.3682 49.3032 26.3682C48.6548 26.3682 48.1292 26.8938 48.1292 27.5422C48.1292 28.1906 48.6548 28.7163 49.3032 28.7163Z" fill="black"/>
</g>
</svg>
