<svg width="74" height="82" viewBox="0 0 74 82" fill="none" xmlns="http://www.w3.org/2000/svg">
<path d="M10.6645 75.8639C10.174 75.8639 9.67558 75.7712 9.19308 75.5757C7.18605 74.7623 6.21808 72.4759 7.03152 70.4687C9.39949 64.6248 9.28574 61.4137 9.15386 57.6954C8.99808 53.2982 8.82152 48.3142 12.5096 39.5928C13.3531 37.5981 15.6542 36.665 17.6487 37.5084C19.6432 38.3518 20.5765 40.6528 19.7331 42.6473C16.7206 49.7706 16.8523 53.485 16.9917 57.4176C17.1346 61.4493 17.2965 66.0193 14.3001 73.4137C13.682 74.9389 12.214 75.8639 10.6645 75.8639Z" fill="white" stroke="#222222" stroke-width="2"/>
<path d="M21.6304 81C20.4701 81 19.3213 80.4875 18.5476 79.5053C17.2073 77.8041 17.4999 75.3386 19.201 73.9983C22.8688 71.1086 23.0738 66.3874 23.1048 58.9238C23.1346 51.7172 23.1683 43.5488 28.3001 36.2397C29.5444 34.4672 31.9901 34.0392 33.7626 35.2836C35.5349 36.528 35.9632 38.9738 34.7187 40.7461C31.0007 46.0419 30.9735 52.6072 30.9473 58.9563C30.9319 62.6574 30.916 66.4847 30.149 69.9917C29.1951 74.3536 27.2015 77.6791 24.0543 80.1588C23.3357 80.7252 22.4799 81 21.6304 81Z" fill="white" stroke="#222222" stroke-width="2"/>
<path d="M63.3347 75.8639C63.8252 75.8639 64.3236 75.7712 64.8061 75.5757C66.8132 74.7623 67.7811 72.4759 66.9677 70.4687C64.5997 64.6248 64.7135 61.4137 64.8454 57.6954C65.0011 53.2982 65.1777 48.3142 61.4896 39.5928C60.6461 37.5981 58.3451 36.665 56.3505 37.5084C54.356 38.3518 53.4227 40.6528 54.2662 42.6473C57.2787 49.7706 57.1469 53.485 57.0076 57.4176C56.8646 61.4493 56.7027 66.0193 59.6991 73.4137C60.3172 74.9389 61.7851 75.8639 63.3347 75.8639Z" fill="white" stroke="#222222" stroke-width="2"/>
<path d="M52.3687 81C53.529 81 54.6777 80.4875 55.4515 79.5053C56.7918 77.8041 56.4991 75.3386 54.7982 73.9983C51.1304 71.1086 50.9254 66.3874 50.8944 58.9238C50.8646 51.7172 50.8308 43.5488 45.6991 36.2397C44.4547 34.4672 42.0091 34.0392 40.2366 35.2836C38.4643 36.528 38.036 38.9738 39.2805 40.7461C42.9985 46.0419 43.0257 52.6072 43.0519 58.9563C43.0672 62.6574 43.0832 66.4847 43.8502 69.9917C44.8041 74.3536 46.7977 77.6791 49.9449 80.1588C50.6635 80.7252 51.5193 81 52.3687 81Z" fill="white" stroke="#222222" stroke-width="2"/>
<path d="M61.4907 39.5932C60.6472 37.5985 58.3462 36.6654 56.3516 37.509C54.3571 38.3524 53.4238 40.6534 54.2674 42.648C55.8077 46.2901 56.5249 49.0398 56.8404 51.3844C57.4151 51.4466 58.0032 51.4837 58.6065 51.4837L58.7154 51.4834C60.771 51.4687 62.7638 51.1334 64.6407 50.5037C64.2594 47.568 63.386 44.0748 61.4907 39.5932Z" fill="white" stroke="#222222" stroke-width="2"/>
<path d="M50.5265 49.8915C50.0149 45.2934 48.7702 40.6128 45.6999 36.2397C44.4555 34.4673 42.0099 34.0392 40.2374 35.2836C38.4651 36.5279 38.0368 38.9737 39.2813 40.7461C40.9112 43.0675 41.8316 45.633 42.3538 48.3172C44.8702 48.5747 47.304 49.0151 49.6293 49.6384C49.9215 49.7169 50.2204 49.8022 50.5265 49.8915Z" fill="white" stroke="#222222" stroke-width="2"/>
<path d="M33.7638 35.2835C31.9911 34.0393 29.5457 34.4671 28.3013 36.2396C25.231 40.6128 23.9863 45.2934 23.4747 49.8915C23.7807 49.8021 24.0794 49.7168 24.3719 49.6385C26.6974 49.0153 29.1311 48.5749 31.6475 48.3173C32.1697 45.6331 33.0904 43.0678 34.72 40.7462C35.9641 38.9737 35.5361 36.5279 33.7638 35.2835Z" fill="white" stroke="#222222" stroke-width="2"/>
<path d="M17.6491 37.5089C15.6546 36.6655 13.3536 37.5986 12.51 39.5931C10.6147 44.0747 9.74127 47.568 9.35986 50.5034C11.2367 51.1331 13.2296 51.4684 15.2852 51.4831C15.2852 51.4831 15.3941 51.4834 15.3942 51.4834C15.9975 51.4834 16.5855 51.4464 17.1602 51.3842C17.4758 49.0395 18.1931 46.2898 19.7331 42.6478C20.5769 40.6533 19.6436 38.3525 17.6491 37.5089Z" fill="white" stroke="#222222" stroke-width="2"/>
<path d="M37.0002 43.2178C41.7033 43.2178 46.3358 43.7564 50.879 44.9741C53.4294 45.6577 56.0035 46.6731 58.6808 46.6539C66.9307 46.5952 73.0447 39.6622 72.5526 31.632C71.4515 13.6734 53.223 1 37.0002 1C20.7777 1 2.54912 13.6734 1.44803 31.6322C0.955838 39.6623 7.0699 46.5953 15.3197 46.6541C17.9969 46.6733 20.5711 45.6578 23.1216 44.9742C27.6646 43.7564 32.2972 43.2178 37.0002 43.2178Z" fill="white" stroke="#222222" stroke-width="2"/>
<path d="M6.27709 31.6322C7.32365 14.5598 23.849 2.265 39.4147 1.09281C38.6066 1.03203 37.801 1 37.0002 1C20.7777 1 2.54912 13.6734 1.44803 31.6322C0.955838 39.6623 7.0699 46.5953 15.3197 46.6541C16.1229 46.6597 16.9163 46.5711 17.703 46.4278C10.7241 45.1723 5.8349 38.8455 6.27709 31.6322Z" fill="white" stroke="#222222" stroke-width="2"/>
<path d="M22.2356 34.1894C21.5688 34.1894 21.0284 33.649 21.0284 32.9822V30.3102C21.0284 29.6435 21.5688 29.103 22.2356 29.103C22.9025 29.103 23.4428 29.6435 23.4428 30.3102V32.9822C23.443 33.649 22.9025 34.1894 22.2356 34.1894Z" fill="black"/>
<path d="M51.7635 34.1894C51.0966 34.1894 50.5563 33.649 50.5563 32.9822V30.3102C50.5563 29.6435 51.0966 29.103 51.7635 29.103C52.4304 29.103 52.9707 29.6435 52.9707 30.3102V32.9822C52.9707 33.649 52.4302 34.1894 51.7635 34.1894Z" fill="black"/>
<path d="M36.9998 35.6153C35.2313 35.6153 33.5717 34.8774 32.4469 33.5903C32.008 33.0883 32.0592 32.3258 32.5611 31.8869C33.0631 31.448 33.8258 31.4991 34.2645 32.0011C34.9311 32.7635 35.928 33.2006 36.9997 33.2006C38.0716 33.2006 39.0684 32.7635 39.7347 32.0013C40.1733 31.4991 40.9363 31.4478 41.438 31.8869C41.94 32.3256 41.9914 33.0883 41.5524 33.5903C40.428 34.8774 38.7684 35.6153 36.9998 35.6153Z" fill="black"/>
</svg>
