<svg width="82" height="80" viewBox="0 0 82 80" fill="none" xmlns="http://www.w3.org/2000/svg">
<path d="M10.3606 52.8914C5.98354 51.2982 -0.12974 45.7684 1.18042 42.1687C2.49057 38.569 10.7282 38.2625 15.1051 39.8556C19.4821 41.4487 21.0432 45.3217 19.7331 48.9214C18.4229 52.5211 14.7374 54.4843 10.3606 52.8914Z" fill="white" stroke="#222222" stroke-width="2"/>
<path d="M71.6394 52.8914C76.0164 51.2982 82.1297 45.7686 80.8196 42.1687C79.5094 38.569 71.2717 38.2625 66.8949 39.8556C62.5178 41.4487 60.9567 45.3217 62.2669 48.9214C63.5771 52.5211 67.2625 54.4843 71.6394 52.8914Z" fill="white" stroke="#222222" stroke-width="2"/>
<path d="M41.0001 69.123C54.9617 69.123 66.2456 66.3073 69.6715 54.9965C74.1662 40.1571 65.3394 8.25586 41.0001 8.25586C16.6609 8.25586 7.83405 40.1571 12.3287 54.9965C15.7547 66.3073 27.0386 69.123 41.0001 69.123Z" fill="white" stroke="#222222" stroke-width="2"/>
<path d="M58.2008 47.2652C57.3483 45.5268 57.7081 43.4495 59.0689 42.072C61.4022 39.7101 62.8158 36.4384 62.727 32.8355C62.562 26.1357 57.1088 20.6593 50.4097 20.4673C47.4072 20.3812 44.6322 21.339 42.4184 23.0035C41.5825 23.6321 40.4177 23.6321 39.5816 23.0035C37.3678 21.339 34.5928 20.3812 31.5903 20.4673C24.8913 20.6593 19.438 26.1357 19.273 32.8355C19.1842 36.4382 20.5978 39.7099 22.9311 42.0718C24.2919 43.4493 24.6517 45.5266 23.7992 47.2651C21.2755 52.4113 19.6772 58.4612 18.962 64.2565C24.342 67.9857 32.1302 69.1232 41 69.1232C49.8698 69.1232 57.658 67.9857 63.038 64.2565C62.3228 58.4613 60.7245 52.4116 58.2008 47.2652Z" fill="white" stroke="#222222" stroke-width="2"/>
<path d="M40.9999 41.2395C42.9916 41.2395 45.1266 39.4353 45.5547 36.365C46.0735 32.6444 43.5155 31.8516 40.9999 31.8516C38.4843 31.8516 35.9263 32.6444 36.445 36.365C36.8732 39.4353 39.0082 41.2395 40.9999 41.2395Z" stroke="#222222" stroke-width="2"/>
<path d="M28.0673 37.4435C30.4259 37.4435 32.3379 35.9208 32.3379 34.0425C32.3379 32.1643 30.4259 30.6416 28.0673 30.6416C25.7087 30.6416 23.7966 32.1643 23.7966 34.0425C23.7966 35.9208 25.7087 37.4435 28.0673 37.4435Z" fill="#F27281"/>
<path d="M53.9328 37.4435C56.2914 37.4435 58.2035 35.9208 58.2035 34.0425C58.2035 32.1643 56.2914 30.6416 53.9328 30.6416C51.5742 30.6416 49.6622 32.1643 49.6622 34.0425C49.6622 35.9208 51.5742 37.4435 53.9328 37.4435Z" fill="#F27281"/>
<path d="M32.5888 31.5141C31.9416 31.5141 31.4169 30.9894 31.4169 30.3422C31.4169 29.8675 31.0307 29.4814 30.556 29.4814C30.0813 29.4814 29.6952 29.8677 29.6952 30.3422C29.6952 30.9894 29.1705 31.5141 28.5233 31.5141C27.8761 31.5141 27.3514 30.9894 27.3514 30.3422C27.3514 28.5752 28.7889 27.1377 30.556 27.1377C32.323 27.1377 33.7607 28.5752 33.7607 30.3422C33.7607 30.9894 33.236 31.5141 32.5888 31.5141Z" fill="black"/>
<path d="M53.4768 31.5141C52.8295 31.5141 52.305 30.9894 52.305 30.3422C52.305 29.8675 51.9187 29.4814 51.444 29.4814C50.9695 29.4814 50.5833 29.8677 50.5833 30.3422C50.5833 30.9894 50.0587 31.5141 49.4114 31.5141C48.764 31.5141 48.2395 30.9894 48.2395 30.3422C48.2395 28.5752 49.677 27.1377 51.444 27.1377C53.2112 27.1377 54.6487 28.5752 54.6487 30.3422C54.6487 30.9894 54.124 31.5141 53.4768 31.5141Z" fill="black"/>
<path d="M35.1229 71.744H29.9988C28.447 71.744 27.1888 70.4859 27.1888 68.934C27.1888 67.3821 28.447 66.124 29.9988 66.124H35.1229C36.6748 66.124 37.9329 67.3821 37.9329 68.934C37.9327 70.4859 36.6748 71.744 35.1229 71.744Z" fill="white" stroke="#222222" stroke-width="2"/>
<path d="M46.8773 71.744H52.0014C53.5532 71.744 54.8114 70.4859 54.8114 68.934C54.8114 67.3821 53.5532 66.124 52.0014 66.124H46.8773C45.3254 66.124 44.0673 67.3821 44.0673 68.934C44.0675 70.4859 45.3254 71.744 46.8773 71.744Z" fill="white" stroke="#222222" stroke-width="2"/>
</svg>
