<svg width="82" height="58" viewBox="0 0 82 58" fill="none" xmlns="http://www.w3.org/2000/svg">
<path d="M61.3394 56.9665H4.04627C2.14127 56.9665 0.704079 55.2373 1.0522 53.3645C2.40908 46.0674 8.77611 40.7754 16.1981 40.7754H61.3392L61.3394 56.9665Z" fill="white" stroke="#222222" stroke-width="2"/>
<path d="M55.0564 24.9637C55.0564 32.3979 51.5417 39.0404 46.0275 43.4296C40.8636 43.4296 39.5939 48.8941 30.2453 48.8941C16.5425 48.8941 5.43408 38.1801 5.43408 24.9637C5.43408 11.7473 16.5425 1.0332 30.2453 1.0332C43.9481 1.0332 55.0564 11.7473 55.0564 24.9637Z" fill="white" stroke="#222222" stroke-width="2"/>
<path d="M74.9697 18.6931C75.1288 18.4031 75.4309 18.2203 75.7617 18.2203H75.7669C78.657 18.2203 81 15.8773 81 12.9872C81 9.97625 78.4574 7.55922 75.402 7.7664C72.8744 7.93781 70.8053 9.94281 70.5592 12.4644C70.4822 13.2542 70.582 14.0116 70.8225 14.7034C70.9069 14.9464 70.8822 15.2125 70.7522 15.4344C68.5172 19.2483 67.3906 23.2494 66.9077 26.4819C66.8033 27.1803 66.1188 27.6323 65.4345 27.4575C64.1286 27.1237 62.7558 26.9456 61.3392 26.9456C60.0756 26.9456 58.8472 27.0878 57.6697 27.3555C57.1103 27.4827 56.5988 27.0075 56.7006 26.4431C57.1134 24.1569 57.9227 21.3939 59.4038 18.693C59.5627 18.4031 59.865 18.2203 60.1956 18.2203H60.2009C63.0911 18.2203 65.4341 15.8773 65.4341 12.9872C65.4341 9.97656 62.8917 7.55953 59.8367 7.76625C57.3089 7.93734 55.2395 9.94234 54.9933 12.4639C54.9161 13.2541 55.0161 14.012 55.2569 14.7041C55.3411 14.9464 55.3166 15.2119 55.1867 15.4333C52.1017 20.6972 51.128 26.3178 51.0445 29.7817C51.0322 30.2952 50.8077 30.7766 50.4284 31.123C47.4381 33.8548 45.5764 37.6984 45.5764 41.9562C45.5764 50.2464 52.6336 56.967 61.3392 56.967C70.0448 56.967 77.102 50.2464 77.102 41.9562C77.102 37.8111 75.3375 34.0587 72.4848 31.3425C72.1011 30.977 71.88 30.4734 71.8917 29.9436C71.9456 27.5181 72.5941 23.0252 74.9697 18.6931Z" fill="white" stroke="#222222" stroke-width="2"/>
<path d="M61.0815 14.7871C60.4342 14.7871 59.9097 14.2624 59.9097 13.6152V12.3521C59.9097 11.7049 60.4342 11.1802 61.0815 11.1802C61.7289 11.1802 62.2534 11.7049 62.2534 12.3521V13.6152C62.2534 14.2624 61.7289 14.7871 61.0815 14.7871Z" fill="black"/>
<path d="M53.4937 39.1322C55.3356 39.1322 56.8287 37.9431 56.8287 36.4763C56.8287 35.0094 55.3356 33.8203 53.4937 33.8203C51.6518 33.8203 50.1587 35.0094 50.1587 36.4763C50.1587 37.9431 51.6518 39.1322 53.4937 39.1322Z" fill="#F27281"/>
<path d="M71.5717 39.1322C73.4136 39.1322 74.9067 37.9431 74.9067 36.4763C74.9067 35.0094 73.4136 33.8203 71.5717 33.8203C69.7298 33.8203 68.2367 35.0094 68.2367 36.4763C68.2367 37.9431 69.7298 39.1322 71.5717 39.1322Z" fill="#F27281"/>
<path d="M62.533 37.6481C61.4772 37.6481 60.4735 37.1909 59.7791 36.394C59.3538 35.906 59.4049 35.1657 59.8929 34.7406C60.3807 34.3156 61.1211 34.3662 61.5461 34.8542C61.7955 35.1402 62.1552 35.3043 62.533 35.3043C62.911 35.3043 63.2708 35.1402 63.5202 34.854C63.9454 34.3662 64.6858 34.3154 65.1735 34.7406C65.6615 35.1659 65.7121 35.9062 65.2869 36.394C64.5924 37.1909 63.5886 37.6481 62.533 37.6481Z" fill="black"/>
<path d="M76.6476 14.7871C76.0002 14.7871 75.4757 14.2624 75.4757 13.6152V12.3521C75.4757 11.7049 76.0002 11.1802 76.6476 11.1802C77.2948 11.1802 77.8195 11.7049 77.8195 12.3521V13.6152C77.8195 14.2624 77.2948 14.7871 76.6476 14.7871Z" fill="black"/>
<path d="M27.9692 13.3345C21.1095 13.3345 15.5288 18.9153 15.5288 25.7751C15.5288 26.4223 16.0533 26.947 16.7006 26.947C17.348 26.947 17.8725 26.4223 17.8725 25.7751C17.8725 20.2076 22.4019 15.6782 27.9692 15.6782C35.09 15.6782 40.8833 21.4715 40.8833 28.5923C40.8833 37.6548 33.5105 45.0278 24.4477 45.0278C19.5508 45.0278 14.8278 43.292 11.1055 40.1921C13.6648 43.1812 16.963 45.5593 20.7294 47.0693C21.9513 47.2685 23.1942 47.3715 24.4477 47.3715C34.8025 47.3715 43.227 38.9473 43.227 28.5923C43.2272 20.179 36.3825 13.3345 27.9692 13.3345Z" fill="black"/>
<g opacity="0.1">
<path opacity="0.1" d="M36.6032 10.7812C37.2435 10.7812 37.7626 10.2621 37.7626 9.62178C37.7626 8.98147 37.2435 8.4624 36.6032 8.4624C35.9629 8.4624 35.4438 8.98147 35.4438 9.62178C35.4438 10.2621 35.9629 10.7812 36.6032 10.7812Z" fill="black"/>
<path opacity="0.1" d="M44.9328 13.5106C45.5731 13.5106 46.0922 12.9916 46.0922 12.3513C46.0922 11.711 45.5731 11.1919 44.9328 11.1919C44.2925 11.1919 43.7734 11.711 43.7734 12.3513C43.7734 12.9916 44.2925 13.5106 44.9328 13.5106Z" fill="black"/>
<path opacity="0.1" d="M40.3749 14.6703C41.0152 14.6703 41.5343 14.1512 41.5343 13.5109C41.5343 12.8706 41.0152 12.3516 40.3749 12.3516C39.7346 12.3516 39.2156 12.8706 39.2156 13.5109C39.2156 14.1512 39.7346 14.6703 40.3749 14.6703Z" fill="black"/>
<path opacity="0.1" d="M18.2078 36.7846C18.8481 36.7846 19.3672 36.2655 19.3672 35.6252C19.3672 34.9849 18.8481 34.4658 18.2078 34.4658C17.5675 34.4658 17.0485 34.9849 17.0485 35.6252C17.0485 36.2655 17.5675 36.7846 18.2078 36.7846Z" fill="black"/>
<path opacity="0.1" d="M11.6391 19.2187C12.2794 19.2187 12.7985 18.6996 12.7985 18.0593C12.7985 17.419 12.2794 16.8999 11.6391 16.8999C10.9988 16.8999 10.4797 17.419 10.4797 18.0593C10.4797 18.6996 10.9988 19.2187 11.6391 19.2187Z" fill="black"/>
<path opacity="0.1" d="M21.925 40.7748C22.5653 40.7748 23.0844 40.2557 23.0844 39.6154C23.0844 38.9751 22.5653 38.4561 21.925 38.4561C21.2847 38.4561 20.7656 38.9751 20.7656 39.6154C20.7656 40.2557 21.2847 40.7748 21.925 40.7748Z" fill="black"/>
<path opacity="0.1" d="M25.0687 36.0531C25.709 36.0531 26.2281 35.5341 26.2281 34.8938C26.2281 34.2534 25.709 33.7344 25.0687 33.7344C24.4284 33.7344 23.9093 34.2534 23.9093 34.8938C23.9093 35.5341 24.4284 36.0531 25.0687 36.0531Z" fill="black"/>
</g>
</svg>
