<svg width="82" height="74" viewBox="0 0 82 74" fill="none" xmlns="http://www.w3.org/2000/svg">
<path d="M46.2994 63.8916V67.99C46.2994 70.5622 44.2142 72.6473 41.6422 72.6473C39.07 72.6473 36.9849 70.5622 36.9849 67.99V63.8916C36.9849 61.3194 39.07 59.2344 41.6422 59.2344C44.2144 59.2344 46.2994 61.3194 46.2994 63.8916Z" fill="white" stroke="#222222" stroke-width="2"/>
<path d="M54.7115 66.2822C56.9465 68.5172 60.6976 68.0843 62.3369 65.382C68.2315 55.6643 66.9812 42.8298 58.5859 34.4345L54.0715 29.9201C49.1634 25.012 41.1681 24.8251 36.1967 29.6692C31.1455 34.5911 31.1056 42.6764 36.0773 47.6481L54.7115 66.2822Z" fill="white" stroke="#222222" stroke-width="2"/>
<path opacity="0.1" d="M58.3567 60.24C58.0568 60.24 57.7568 60.1256 57.5281 59.8968L53.4203 55.789C52.9626 55.3312 52.9626 54.5894 53.4203 54.1317C53.8779 53.6742 54.62 53.6742 55.0775 54.1317L59.1853 58.2395C59.6429 58.6973 59.6429 59.4392 59.1853 59.897C58.9565 60.1256 58.6565 60.24 58.3567 60.24Z" fill="white"/>
<path d="M78.5193 27.4H37.299V4.77002H60.8508C71.979 4.77002 81 13.7911 81 24.9192C81 26.2894 79.8893 27.4 78.5193 27.4Z" fill="white" stroke="#222222" stroke-width="2"/>
<path d="M62.0308 4.80469C62.4611 12.0691 63.9676 20.9231 67.4412 27.3995H78.5191C79.8892 27.3995 80.9998 26.2887 80.9998 24.9187C80.9998 14.1869 72.6094 5.41594 62.0308 4.80469Z" fill="white" stroke="#222222" stroke-width="2"/>
<path d="M36.9642 1.35302C27.4867 1.28271 19.7817 8.94443 19.7817 18.4057V57.8407L3.48203 61.3613C2.03375 61.6741 1 62.955 1 64.4368C1 66.1744 2.40875 67.5832 4.14641 67.5832H29.3966V67.5829C30.6894 67.5911 32.0172 67.3361 33.3145 66.7747C45.4188 61.5369 53.8881 49.4869 53.8881 35.4586V18.6196C53.8881 9.21661 46.367 1.42271 36.9642 1.35302Z" fill="white" stroke="#222222" stroke-width="2"/>
<path d="M52.2214 11.1894C47.1003 7.79586 38.4042 6.88023 33.2324 13.6977C27.0286 21.8754 31.9852 48.5566 39.9614 62.956C48.4063 56.7479 53.8878 46.7441 53.8878 35.4591V18.6201C53.888 15.9696 53.2903 13.4473 52.2214 11.1894Z" fill="white" stroke="#222222" stroke-width="2"/>
<path d="M32.2893 63.8916V67.99C32.2893 70.5622 30.2041 72.6473 27.6321 72.6473C25.0599 72.6473 22.9747 70.5622 22.9747 67.99V63.8916C22.9747 61.3194 25.0599 59.2344 27.6321 59.2344C30.2041 59.2344 32.2893 61.3194 32.2893 63.8916Z" fill="white" stroke="#222222" stroke-width="2"/>
<path d="M12.0396 62.3435C12.0396 65.5043 14.998 67.8507 18.068 67.099C29.1075 64.3957 37.2989 54.4362 37.2989 42.5635V36.1793C37.2989 29.2382 31.7775 23.4524 24.8369 23.3624C17.7849 23.2709 12.0396 28.9601 12.0396 35.991C12.0396 35.9909 12.0396 62.3435 12.0396 62.3435Z" fill="white" stroke="#222222" stroke-width="2"/>
<path d="M45.3459 19.9828C44.6987 19.9828 44.174 19.4582 44.174 18.8109C44.174 17.954 43.477 17.2568 42.6201 17.2568C41.7632 17.2568 41.066 17.954 41.066 18.8109C41.066 19.4582 40.5414 19.9828 39.8942 19.9828C39.247 19.9828 38.7223 19.4582 38.7223 18.8109C38.7223 16.6615 40.4707 14.9131 42.6201 14.9131C44.7693 14.9131 46.5178 16.6615 46.5178 18.8109C46.5178 19.4581 45.9931 19.9828 45.3459 19.9828Z" fill="black"/>
<g opacity="0.1">
<path opacity="0.1" d="M20.048 57.6387C19.4008 57.6387 18.8761 57.1142 18.8761 56.4669V49.0034C18.8761 48.3561 19.4008 47.8315 20.048 47.8315C20.6952 47.8315 21.2199 48.3561 21.2199 49.0034V56.4669C21.2199 57.114 20.6952 57.6387 20.048 57.6387Z" fill="white"/>
<path opacity="0.1" d="M29.3967 50.1756C28.7495 50.1756 28.2249 49.6511 28.2249 49.0037V43.1943C28.2249 42.547 28.7495 42.0225 29.3967 42.0225C30.0439 42.0225 30.5686 42.547 30.5686 43.1943V49.0037C30.5686 49.6511 30.0439 50.1756 29.3967 50.1756Z" fill="white"/>
</g>
</svg>
