<svg width="82" height="46" viewBox="0 0 82 46" fill="none" xmlns="http://www.w3.org/2000/svg">
<path d="M44.2788 43.8136L48.2296 39.8628C52.6437 35.4487 53.8644 28.7629 51.2948 23.0738C50.5801 21.4918 48.5042 21.1134 47.2768 22.3402L40.2792 29.3379C37.2762 32.3408 36.4462 36.8891 38.1942 40.7594L39.1506 42.8773C40.0631 44.8963 42.7126 45.3797 44.2788 43.8136Z" fill="white" stroke="#222222" stroke-width="2"/>
<path d="M5.24131 24.4914L4.41564 22.4092H61.707L60.881 24.4914L60.881 24.4915C59.3201 28.428 55.5143 31.0128 51.2795 31.0128H14.8434C10.6086 31.0128 6.80288 28.428 5.24135 24.4915C5.24134 24.4915 5.24132 24.4914 5.24131 24.4914Z" fill="white" stroke="#222222" stroke-width="2"/>
<path d="M26 25H29V31H26V25Z" fill="white" stroke="#222222" stroke-width="2"/>
<path d="M36.7684 43.8136L40.7192 39.8628C45.1333 35.4487 46.354 28.7629 43.7838 23.0738C43.0697 21.4918 40.9939 21.1134 39.7665 22.3402L32.7688 29.3379C29.7659 32.3408 28.9358 36.8891 30.6838 40.7594L31.6402 42.8773C32.5521 44.8963 35.2016 45.3797 36.7684 43.8136Z" fill="white" stroke="#222222" stroke-width="2"/>
<path d="M13.3951 43.8136L17.3453 39.8628C21.76 35.4487 22.9801 28.7629 20.4105 23.0738C19.6958 21.4918 17.62 21.1134 16.3932 22.3402L9.39552 29.3379C6.39259 32.3408 5.5619 36.8891 7.31056 40.7594L8.26698 42.8773C9.17884 44.8963 11.8284 45.3797 13.3951 43.8136Z" fill="white" stroke="#222222" stroke-width="2"/>
<path d="M33.0612 1.4375C23.016 1.4375 13.6031 6.33984 7.84448 14.571L3.05994 21.4094H63.063L58.2784 14.571C52.5198 6.33984 43.1069 1.4375 33.0612 1.4375Z" fill="white" stroke="#222222" stroke-width="2"/>
<path d="M15.2601 20.199C15.464 20.3406 15.6971 20.4083 15.9278 20.4083C16.2989 20.4083 16.6633 20.2325 16.891 19.9048L24.5851 8.82385C26.6841 9.70947 29.1847 10.2643 31.8891 10.3888V17.5275C31.8891 18.1744 32.414 18.6993 33.061 18.6993C33.7086 18.6993 34.2329 18.1744 34.2329 17.5275V10.3888C36.938 10.2643 39.4386 9.70947 41.5376 8.82385L49.2311 19.9048C49.4587 20.2325 49.8237 20.4083 50.1948 20.4083C50.4255 20.4083 50.6587 20.3406 50.8619 20.199C51.3935 19.8297 51.5254 19.0997 51.1567 18.5681L43.6396 7.7417C45.0129 6.88477 46.1036 5.85266 46.8244 4.68994C46.1177 4.33655 45.3981 4.00879 44.6662 3.71094C42.8657 6.26404 38.2124 8.07373 33.061 8.07373C27.9097 8.07373 23.2563 6.26404 21.4564 3.71094C20.724 4.00879 20.0044 4.33655 19.2976 4.68994C20.0184 5.85266 21.1091 6.88477 22.483 7.7417L14.9659 18.5681C14.5967 19.0997 14.7285 19.8297 15.2601 20.199Z" fill="#222222"/>
<path d="M61.2405 25.2916H4.88245C2.73828 25.2916 1 23.5533 1 21.4092C1 19.265 2.73828 17.5273 4.88245 17.5273H61.2405C63.3846 17.5273 65.1229 19.265 65.1229 21.4092C65.1229 23.5533 63.3846 25.2916 61.2405 25.2916Z" fill="white" stroke="#222222" stroke-width="2"/>
<path d="M22.9885 17.5273H4.88245C2.73828 17.5273 1 19.265 1 21.4092C1 23.5533 2.73828 25.2916 4.88245 25.2916H24.4448C22.828 23.3257 21.8124 20.0145 22.9885 17.5273Z" fill="white" stroke="#222222" stroke-width="2"/>
<path d="M70.563 29.766H58.5861C53.4274 29.766 49.2452 25.5839 49.2452 20.4252C49.2452 12.6157 55.5758 6.28516 63.3853 6.28516H67.9562C75.1602 6.28516 81 12.125 81 19.329C81 25.0931 76.3271 29.766 70.563 29.766Z" fill="white" stroke="#222222" stroke-width="2"/>
<path d="M58.085 19.3763C57.4374 19.3763 56.9131 18.8514 56.9131 18.2045V16.8599C56.9131 16.2129 57.4374 15.688 58.085 15.688C58.7319 15.688 59.2568 16.2129 59.2568 16.8599V18.2045C59.2568 18.8514 58.7319 19.3763 58.085 19.3763Z" fill="black"/>
<path d="M74.2831 19.3763C73.6355 19.3763 73.1112 18.8514 73.1112 18.2045V16.8599C73.1112 16.2129 73.6355 15.688 74.2831 15.688C74.9301 15.688 75.455 16.2129 75.455 16.8599V18.2045C75.455 18.8514 74.9301 19.3763 74.2831 19.3763Z" fill="black"/>
<path d="M66.1835 20.4082C65.0269 20.4082 63.9264 19.9071 63.1647 19.0337C62.7399 18.5454 62.7906 17.8056 63.2788 17.3802C63.7665 16.9548 64.5069 17.0061 64.9317 17.4938C65.2478 17.8563 65.7044 18.0644 66.1835 18.0644C66.6626 18.0644 67.1192 17.8563 67.4353 17.4938C67.8601 17.0061 68.6011 16.9548 69.0888 17.3802C69.5765 17.8056 69.6277 18.5454 69.2023 19.0337C68.4412 19.9071 67.3407 20.4082 66.1835 20.4082Z" fill="black"/>
</svg>
